<?xml version="1.0" encoding="utf-8"?>
<!-- Generator: Adobe Illustrator 22.0.0, SVG Export Plug-In . SVG Version: 6.00 Build 0)  -->
<svg version="1.1" id="Livello_1" xmlns="http://www.w3.org/2000/svg" xmlns:xlink="http://www.w3.org/1999/xlink" x="0px" y="0px"
	 viewBox="0 0 128 128" style="enable-background:new 0 0 128 128;" xml:space="preserve">
<style type="text/css">
	.st0{fill:url(#SVGID_1_);}
	.st1{fill:url(#SVGID_2_);}
	.st2{fill:url(#SVGID_3_);}
	.st3{fill:#0CB2BF;}
	.st4{fill:#FF9843;}
	.st5{clip-path:url(#SVGID_5_);}
	.st6{clip-path:url(#SVGID_7_);}
	.st7{clip-path:url(#SVGID_9_);}
	.st8{clip-path:url(#SVGID_11_);}
	.st9{fill:#0BB1BE;}
	.st10{clip-path:url(#SVGID_13_);}
	.st11{clip-path:url(#SVGID_15_);}
</style>
<g id="Back">
</g>
<g>
	
		<linearGradient id="SVGID_1_" gradientUnits="userSpaceOnUse" x1="82.84" y1="78.3619" x2="82.84" y2="34.9777" gradientTransform="matrix(1 0 0 -1 0 130)">
		<stop  offset="2.790000e-02" style="stop-color:#39D8D8"/>
		<stop  offset="0.1569" style="stop-color:#26C8CE"/>
		<stop  offset="0.3295" style="stop-color:#13B8C3"/>
		<stop  offset="0.4489" style="stop-color:#0CB2BF"/>
		<stop  offset="0.5167" style="stop-color:#0CADBB"/>
		<stop  offset="0.5957" style="stop-color:#0C9FAD"/>
		<stop  offset="0.6804" style="stop-color:#0C8898"/>
		<stop  offset="0.7691" style="stop-color:#0B6779"/>
		<stop  offset="0.8599" style="stop-color:#0B3D53"/>
		<stop  offset="0.8911" style="stop-color:#0B2D44"/>
	</linearGradient>
	<path class="st0" d="M87.6,96.4V53.2c-2.5-3.5-5.7-6.5-9.4-8.6v51.9H87.6z"/>
	
		<linearGradient id="SVGID_2_" gradientUnits="userSpaceOnUse" x1="57.42" y1="99.9088" x2="57.42" y2="35.1127" gradientTransform="matrix(1 0 0 -1 0 130)">
		<stop  offset="2.790000e-02" style="stop-color:#39D8D8"/>
		<stop  offset="0.1569" style="stop-color:#26C8CE"/>
		<stop  offset="0.3295" style="stop-color:#13B8C3"/>
		<stop  offset="0.4489" style="stop-color:#0CB2BF"/>
		<stop  offset="0.5167" style="stop-color:#0CADBB"/>
		<stop  offset="0.5957" style="stop-color:#0C9FAD"/>
		<stop  offset="0.6804" style="stop-color:#0C8898"/>
		<stop  offset="0.7691" style="stop-color:#0B6779"/>
		<stop  offset="0.8599" style="stop-color:#0B3D53"/>
		<stop  offset="0.8911" style="stop-color:#0B2D44"/>
	</linearGradient>
	<path class="st1" d="M62.1,96.4V28c-3.3,0.2-6.5,0.9-9.4,2.1v66.3C52.7,96.4,62.1,96.4,62.1,96.4z"/>
	
		<linearGradient id="SVGID_3_" gradientUnits="userSpaceOnUse" x1="70.13" y1="99.8992" x2="70.13" y2="35.0931" gradientTransform="matrix(1 0 0 -1 0 130)">
		<stop  offset="2.790000e-02" style="stop-color:#39D8D8"/>
		<stop  offset="0.1569" style="stop-color:#26C8CE"/>
		<stop  offset="0.3295" style="stop-color:#13B8C3"/>
		<stop  offset="0.4489" style="stop-color:#0CB2BF"/>
		<stop  offset="0.5167" style="stop-color:#0CADBB"/>
		<stop  offset="0.5957" style="stop-color:#0C9FAD"/>
		<stop  offset="0.6804" style="stop-color:#0C8898"/>
		<stop  offset="0.7691" style="stop-color:#0B6779"/>
		<stop  offset="0.8599" style="stop-color:#0B3D53"/>
		<stop  offset="0.8911" style="stop-color:#0B2D44"/>
	</linearGradient>
	<path class="st2" d="M74.8,96.4V30.2c-2.9-1.2-6.1-2-9.4-2.2v68.4H74.8z"/>
	<path class="st3" d="M6.8,123.6c-1.2,0-2.2-0.3-3.2-0.8s-1.6-1.2-2.2-2.1s-0.8-1.9-0.8-3.1c0-1.2,0.3-2.2,0.7-3.1
		c0.5-0.9,1.2-1.6,2-2.1s1.9-0.8,3-0.8c1.1,0,2.1,0.3,2.9,0.7s1.4,1.2,1.8,2c0.4,0.9,0.6,1.9,0.6,3c0,0.3-0.1,0.5-0.3,0.7
		s-0.4,0.3-0.7,0.3H2.1v-1.7h8.6l-0.9,0.6c0-0.7-0.2-1.3-0.4-1.9c-0.3-0.6-0.7-1-1.2-1.3c-0.5-0.3-1.1-0.5-1.8-0.5
		c-0.8,0-1.5,0.2-2.1,0.5s-1,0.8-1.3,1.5s-0.5,1.3-0.5,2.1c0,0.8,0.2,1.5,0.5,2.1s0.9,1.1,1.5,1.5s1.3,0.5,2.2,0.5
		c0.4,0,0.9-0.1,1.4-0.3c0.5-0.2,0.8-0.3,1.1-0.6c0.2-0.2,0.4-0.2,0.7-0.3s0.5,0.1,0.6,0.2c0.2,0.2,0.4,0.4,0.4,0.7
		c0,0.3-0.1,0.5-0.3,0.7c-0.5,0.4-1.1,0.7-1.8,0.9C8.1,123.5,7.4,123.6,6.8,123.6z"/>
	<path class="st3" d="M19.4,123.6c-1.1,0-2.1-0.3-3-0.8c-0.9-0.5-1.6-1.2-2.1-2.1c-0.5-0.9-0.8-1.9-0.8-3s0.2-2.1,0.7-3
		c0.5-0.9,1.1-1.6,2-2.1c0.8-0.5,1.8-0.8,2.8-0.8c0.8,0,1.6,0.2,2.3,0.5c0.7,0.3,1.3,0.8,1.8,1.4v-5.8c0-0.3,0.1-0.6,0.3-0.8
		c0.2-0.2,0.5-0.3,0.8-0.3c0.3,0,0.6,0.1,0.8,0.3c0.2,0.2,0.3,0.5,0.3,0.8v9.8c0,1.1-0.3,2.1-0.8,3s-1.2,1.6-2.1,2.1
		C21.5,123.4,20.5,123.6,19.4,123.6z M19.4,121.7c0.7,0,1.4-0.2,2-0.5c0.6-0.3,1-0.8,1.4-1.4c0.3-0.6,0.5-1.3,0.5-2.1
		c0-0.8-0.2-1.5-0.5-2.1s-0.8-1.1-1.4-1.4s-1.2-0.5-2-0.5c-0.7,0-1.4,0.2-1.9,0.5s-1,0.8-1.4,1.4c-0.3,0.6-0.5,1.3-0.5,2.1
		c0,0.8,0.2,1.4,0.5,2.1c0.3,0.6,0.8,1.1,1.4,1.4C18.1,121.5,18.7,121.7,19.4,121.7z"/>
	<path class="st3" d="M30.5,109.9c-0.4,0-0.7-0.1-1-0.4s-0.4-0.6-0.4-1s0.1-0.7,0.4-1s0.6-0.4,1-0.4s0.7,0.1,1,0.4s0.4,0.6,0.4,1
		s-0.1,0.7-0.4,1C31.2,109.8,30.9,109.9,30.5,109.9z M30.5,123.6c-0.3,0-0.6-0.1-0.8-0.3c-0.2-0.2-0.3-0.5-0.3-0.8v-9.5
		c0-0.3,0.1-0.6,0.3-0.8c0.2-0.2,0.5-0.3,0.8-0.3c0.3,0,0.6,0.1,0.8,0.3c0.2,0.2,0.3,0.5,0.3,0.8v9.5c0,0.3-0.1,0.6-0.3,0.8
		C31.1,123.4,30.8,123.6,30.5,123.6z"/>
	<path class="st3" d="M38.5,123.6c-0.6,0-1.2-0.2-1.7-0.5c-0.5-0.3-0.9-0.8-1.1-1.4c-0.3-0.6-0.4-1.3-0.4-2.1v-11.7
		c0-0.3,0.1-0.6,0.3-0.8s0.5-0.3,0.8-0.3s0.6,0.1,0.8,0.3c0.2,0.2,0.3,0.5,0.3,0.8v11.7c0,0.5,0.1,1,0.3,1.3
		c0.2,0.3,0.5,0.5,0.8,0.5H39c0.3,0,0.5,0.1,0.7,0.3c0.2,0.2,0.3,0.5,0.3,0.8s-0.1,0.6-0.4,0.8S38.9,123.5,38.5,123.6
		C38.5,123.5,38.5,123.5,38.5,123.6z"/>
	<path class="st3" d="M46.8,123.6c-1.1,0-2.2-0.3-3-0.8s-1.6-1.2-2.1-2.1s-0.8-1.9-0.8-3c0-1.2,0.3-2.2,0.8-3.1
		c0.5-0.9,1.2-1.6,2.1-2.1c0.9-0.5,1.9-0.8,3-0.8c0.8,0,1.6,0.2,2.3,0.5s1.3,0.8,1.9,1.4c0.2,0.2,0.3,0.5,0.2,0.7
		c-0.1,0.2-0.2,0.5-0.5,0.6c-0.2,0.1-0.4,0.2-0.7,0.1s-0.5-0.2-0.7-0.4c-0.7-0.7-1.6-1.1-2.6-1.1c-0.7,0-1.4,0.2-1.9,0.5
		c-0.6,0.3-1,0.8-1.3,1.4c-0.3,0.6-0.5,1.3-0.5,2.1c0,0.8,0.2,1.5,0.5,2.1s0.8,1.1,1.3,1.4s1.2,0.5,2,0.5c0.5,0,0.9-0.1,1.3-0.2
		s0.7-0.3,1-0.6c0.2-0.2,0.5-0.3,0.7-0.3c0.2,0,0.5,0.1,0.6,0.2c0.2,0.2,0.4,0.4,0.4,0.7s-0.1,0.5-0.3,0.7
		C49.6,123.2,48.3,123.6,46.8,123.6z"/>
	<path class="st3" d="M57.1,123.6c-0.6,0-1.2-0.2-1.7-0.5c-0.5-0.3-0.9-0.8-1.1-1.4c-0.3-0.6-0.4-1.3-0.4-2.1v-11.7
		c0-0.3,0.1-0.6,0.3-0.8s0.5-0.3,0.8-0.3s0.6,0.1,0.8,0.3c0.2,0.2,0.3,0.5,0.3,0.8v11.7c0,0.5,0.1,1,0.3,1.3
		c0.2,0.3,0.5,0.5,0.8,0.5h0.5c0.3,0,0.5,0.1,0.7,0.3c0.2,0.2,0.3,0.5,0.3,0.8s-0.1,0.6-0.4,0.8S57.6,123.5,57.1,123.6
		C57.2,123.5,57.1,123.5,57.1,123.6z"/>
	<path class="st3" d="M65.4,123.6c-1.2,0-2.2-0.3-3.1-0.8s-1.6-1.2-2.1-2.1s-0.8-1.9-0.8-3.1c0-1.2,0.3-2.2,0.8-3.1
		c0.5-0.9,1.2-1.6,2.1-2.1s1.9-0.8,3.1-0.8c1.1,0,2.2,0.3,3,0.8c0.9,0.5,1.6,1.2,2.1,2.1c0.5,0.9,0.8,1.9,0.8,3.1
		c0,1.2-0.3,2.2-0.8,3.1c-0.5,0.9-1.2,1.6-2.1,2.1C67.6,123.4,66.6,123.6,65.4,123.6z M65.4,121.7c0.7,0,1.4-0.2,2-0.5
		c0.6-0.3,1-0.8,1.3-1.4c0.3-0.6,0.5-1.3,0.5-2.1s-0.2-1.5-0.5-2.1c-0.3-0.6-0.8-1.1-1.3-1.4c-0.6-0.3-1.2-0.5-2-0.5s-1.4,0.2-2,0.5
		c-0.6,0.3-1,0.8-1.3,1.4c-0.3,0.6-0.5,1.3-0.5,2.1c0,0.8,0.2,1.5,0.5,2.1s0.8,1.1,1.3,1.4S64.7,121.7,65.4,121.7z"/>
	<path class="st3" d="M79.5,123.7c-1,0-1.9-0.2-2.7-0.6s-1.4-1-1.8-1.8s-0.7-1.8-0.7-3v-5.3c0-0.3,0.1-0.6,0.3-0.8
		c0.2-0.2,0.5-0.3,0.8-0.3s0.6,0.1,0.8,0.3c0.2,0.2,0.3,0.5,0.3,0.8v5.3c0,0.8,0.2,1.5,0.4,2c0.3,0.5,0.7,0.9,1.2,1.2
		s1.1,0.4,1.7,0.4c0.6,0,1.2-0.1,1.6-0.4c0.5-0.2,0.9-0.6,1.2-1c0.3-0.4,0.4-0.9,0.4-1.4h1.3c0,0.9-0.2,1.7-0.7,2.4
		c-0.4,0.7-1,1.3-1.8,1.7C81.3,123.4,80.5,123.7,79.5,123.7z M84.3,123.6c-0.3,0-0.6-0.1-0.8-0.3c-0.2-0.2-0.3-0.5-0.3-0.8v-9.6
		c0-0.3,0.1-0.6,0.3-0.8c0.2-0.2,0.5-0.3,0.8-0.3c0.3,0,0.6,0.1,0.8,0.3c0.2,0.2,0.3,0.5,0.3,0.8v9.6c0,0.3-0.1,0.6-0.3,0.8
		C84.8,123.4,84.6,123.6,84.3,123.6z"/>
	<path class="st3" d="M94.5,123.6c-1.1,0-2.1-0.3-3-0.8s-1.6-1.2-2.1-2.1c-0.5-0.9-0.8-1.9-0.8-3s0.2-2.1,0.7-3s1.1-1.6,2-2.1
		c0.8-0.5,1.8-0.8,2.8-0.8c0.8,0,1.6,0.2,2.3,0.5c0.7,0.3,1.3,0.8,1.8,1.4v-5.8c0-0.3,0.1-0.6,0.3-0.8c0.2-0.2,0.5-0.3,0.8-0.3
		c0.3,0,0.6,0.1,0.8,0.3c0.2,0.2,0.3,0.5,0.3,0.8v9.8c0,1.1-0.3,2.1-0.8,3s-1.2,1.6-2.1,2.1C96.6,123.4,95.6,123.6,94.5,123.6z
		 M94.5,121.7c0.7,0,1.4-0.2,1.9-0.5c0.6-0.3,1-0.8,1.3-1.4c0.3-0.6,0.5-1.3,0.5-2.1c0-0.8-0.2-1.5-0.5-2.1
		c-0.3-0.6-0.8-1.1-1.3-1.4s-1.2-0.5-1.9-0.5c-0.7,0-1.4,0.2-1.9,0.5s-1,0.8-1.4,1.4c-0.3,0.6-0.5,1.3-0.5,2.1
		c0,0.8,0.2,1.4,0.5,2.1c0.3,0.6,0.8,1.1,1.4,1.4C93.2,121.5,93.8,121.7,94.5,121.7z"/>
	<path class="st4" d="M104.9,123.9c-0.4,0-0.8-0.2-1-0.4s-0.4-0.6-0.4-1c0-0.4,0.2-0.8,0.4-1.1s0.6-0.4,1-0.4c0.4,0,0.8,0.2,1.1,0.4
		s0.4,0.7,0.4,1.1c0,0.4-0.1,0.8-0.4,1C105.7,123.7,105.3,123.9,104.9,123.9z"/>
	<path class="st3" d="M110.7,109.9c-0.4,0-0.7-0.1-1-0.4s-0.4-0.6-0.4-1s0.1-0.7,0.4-1s0.6-0.4,1-0.4s0.7,0.1,1,0.4s0.4,0.6,0.4,1
		s-0.1,0.7-0.4,1C111.4,109.8,111.1,109.9,110.7,109.9z M110.7,123.6c-0.3,0-0.6-0.1-0.8-0.3c-0.2-0.2-0.3-0.5-0.3-0.8v-9.5
		c0-0.3,0.1-0.6,0.3-0.8c0.2-0.2,0.5-0.3,0.8-0.3c0.3,0,0.6,0.1,0.8,0.3c0.2,0.2,0.3,0.5,0.3,0.8v9.5c0,0.3-0.1,0.6-0.3,0.8
		S111,123.6,110.7,123.6z"/>
	<path class="st3" d="M121.2,123.6c-1.2,0-2.2-0.3-3.1-0.8s-1.6-1.2-2.1-2.1c-0.5-0.9-0.8-1.9-0.8-3.1c0-1.2,0.3-2.2,0.8-3.1
		c0.5-0.9,1.2-1.6,2.1-2.1s1.9-0.8,3.1-0.8c1.1,0,2.2,0.3,3,0.8c0.9,0.5,1.6,1.2,2.1,2.1c0.5,0.9,0.8,1.9,0.8,3.1
		c0,1.2-0.3,2.2-0.8,3.1c-0.5,0.9-1.2,1.6-2.1,2.1C123.3,123.4,122.3,123.6,121.2,123.6z M121.2,121.7c0.7,0,1.4-0.2,2-0.5
		c0.6-0.3,1-0.8,1.3-1.4c0.3-0.6,0.5-1.3,0.5-2.1s-0.2-1.5-0.5-2.1c-0.3-0.6-0.8-1.1-1.3-1.4c-0.6-0.3-1.2-0.5-2-0.5s-1.4,0.2-2,0.5
		c-0.6,0.3-1,0.8-1.3,1.4s-0.5,1.3-0.5,2.1c0,0.8,0.2,1.5,0.5,2.1c0.3,0.6,0.8,1.1,1.3,1.4S120.4,121.7,121.2,121.7z"/>
	<g>
		<g>
			<g>
				<defs>
					<path id="SVGID_4_" d="M47.8,97.6c-1.9,0-13.1,0-13.1,0c-19,0-34.5-15.4-34.2-34.4C0.8,46.1,14,31.9,30.8,30.1
						c-0.2,2-0.6,4.9-1.8,7c-0.8,1.5-1.7,2.7-2.7,3.6C16.9,44.1,10.2,53,10,63.4C9.7,77.1,21,88.2,34.7,88.2c0,0,2.5,0,5.3,0v2.1
						c0,4,3.3,7.3,7.3,7.3L47.8,97.6L47.8,97.6z"/>
				</defs>
				<clipPath id="SVGID_5_">
					<use xlink:href="#SVGID_4_"  style="overflow:visible;"/>
				</clipPath>
				<g class="st5">
					<g>
						<g>
							<defs>
								<rect id="SVGID_6_" x="-4.4" y="25.1" width="57.3" height="77.5"/>
							</defs>
							<clipPath id="SVGID_7_">
								<use xlink:href="#SVGID_6_"  style="overflow:visible;"/>
							</clipPath>
							<g class="st6">
								
									<image style="overflow:visible;enable-background:new    ;" width="123" height="165" xlink:href="7E9AB19F.jpeg"  transform="matrix(0.4713 0 0 0.4713 -4.7121 25.1379)">
								</image>
							</g>
						</g>
					</g>
				</g>
			</g>
			<g>
				<g>
					<g>
						<defs>
							<path id="SVGID_8_" d="M96.7,29.6c-0.9,0.1-3.8,0.2-6.2-0.2c-2.3-0.4-3.5-1-4.7-2.4c-4-8.2-12.4-13.8-22-13.8
								c-11.8,0-21.7,8.3-24,19.6c-0.3,1.5-1,2.8-2.1,3.8c0,0,0,0,0,0c-1.8,1.6-4,2.6-6.4,2.9c-1.8,0.2-3.5,0.6-5.1,1.2
								c1.1-1,1.9-2.1,2.7-3.6c1.2-2.2,1.6-5.1,1.8-7l0,0l0,0c1.5-6.7,5.1-12.9,10.2-17.6c6.2-5.7,14.3-8.8,22.8-8.8
								C79.6,3.8,93.1,14.6,96.7,29.6z"/>
						</defs>
						<clipPath id="SVGID_9_">
							<use xlink:href="#SVGID_8_"  style="overflow:visible;"/>
						</clipPath>
						<g class="st7">
							<g>
								<g>
									<defs>
										<rect id="SVGID_10_" x="21.2" y="-1.2" width="80.5" height="47"/>
									</defs>
									<clipPath id="SVGID_11_">
										<use xlink:href="#SVGID_10_"  style="overflow:visible;"/>
									</clipPath>
									<g class="st8">
										
											<image style="overflow:visible;enable-background:new    ;" width="169" height="100" xlink:href="7E9AB19D.jpeg"  transform="matrix(0.4752 0 0 0.4752 21.3168 -1.2621)">
										</image>
									</g>
								</g>
							</g>
						</g>
					</g>
					<path class="st9" d="M49.5,88.2L49.5,88.2C49.4,88.2,49.4,88.2,49.5,88.2l0-43.8c0,0,0,0,0,0c-3.7,2.1-6.9,4.9-9.4,8.4v0v35.5
						l0,0v2.1c0,4,3.3,7.3,7.3,7.3h0.5c0,0,0,0,0.1,0H56c-1.8-0.4-3.4-1.1-4.7-2.4C49.3,93.3,49.3,89.9,49.5,88.2z M48.1,97.6
						L48.1,97.6L48.1,97.6z"/>
					<g>
						<g id="nuovadavanti">
							<g>
								<defs>
									<path id="SVGID_12_" d="M127.1,63.5c0,18.8-15.3,34.1-34.1,34.1l-37,0c-1.8-0.4-3.4-1.1-4.8-2.4c-2-2-2-5.4-1.8-7h43.2
										c13.8,0,25.2-11.3,25-25.1c-0.2-12.5-9.8-22.8-22-24.1c-1.8-0.2-3.6-0.9-5-2.1l-0.1,0c-1.5-1.3-2.5-3-3-4.9
										c-0.4-1.7-1-3.3-1.7-4.9c1.2,1.4,2.4,2,4.7,2.4c2.4,0.4,5.3,0.3,6.2,0.2c0,0,0,0,0,0l0,0C113.8,31.5,127.1,46,127.1,63.5z"
										/>
								</defs>
								<clipPath id="SVGID_13_">
									<use xlink:href="#SVGID_12_"  style="overflow:visible;"/>
								</clipPath>
								<g class="st10">
									<g>
										<g>
											<defs>
												<rect id="SVGID_14_" x="44.4" y="22" width="87.7" height="80.7"/>
											</defs>
											<clipPath id="SVGID_15_">
												<use xlink:href="#SVGID_14_"  style="overflow:visible;"/>
											</clipPath>
											<g class="st11">
												
													<image style="overflow:visible;enable-background:new    ;" width="185" height="171" xlink:href="7E9AB1A3.jpeg"  transform="matrix(0.4744 0 0 0.4744 44.4705 21.7779)">
												</image>
											</g>
										</g>
									</g>
								</g>
							</g>
						</g>
						<g id="sombras">
						</g>
					</g>
				</g>
			</g>
		</g>
	</g>
</g>
</svg>
