<?xml version="1.0" encoding="utf-8"?>
<!-- Generator: Adobe Illustrator 22.0.0, SVG Export Plug-In . SVG Version: 6.00 Build 0)  -->
<svg version="1.1" id="Livello_1" xmlns="http://www.w3.org/2000/svg" xmlns:xlink="http://www.w3.org/1999/xlink" x="0px" y="0px"
	 viewBox="0 0 565.1 95.5" style="enable-background:new 0 0 565.1 95.5;" xml:space="preserve">
<style type="text/css">
	.st0{fill:#0D0A27;}
	.st1{fill:#00FF6D;}
</style>
<g>
	<path class="st0" d="M134.8,43.8v13.3h22.9v10.2h-22.9v13.3h25.6v10.2H124V33.7h36.4v10.2H134.8z"/>
	<path class="st0" d="M196.6,86.2H196c-1.1,1.7-2.5,3-4.4,4.2c-2.1,1.3-4.4,1.7-7.6,1.7c-2.5,0-4.9-0.4-7.2-1.5
		c-2.3-1.1-4.2-2.5-5.9-4.2c-1.7-1.9-3.2-4-4-6.6c-0.8-2.5-1.5-5.3-1.5-8.5c0-3,0.4-5.9,1.5-8.5c1.1-2.5,2.3-4.7,4-6.6
		c1.7-1.9,3.8-3.2,5.9-4.2c2.3-1.1,4.7-1.5,7.2-1.5c3,0,5.5,0.6,7.6,1.7c2.1,1.3,3.6,2.5,4.4,4.2h0.6L196,51V33.7h10.6V91h-9.7v-4.9
		H196.6z M186.3,82.6c1.5,0,2.8-0.2,4-0.8c1.3-0.4,2.3-1.3,3.4-2.1c1.1-1.1,1.7-2.1,2.3-3.6c0.6-1.5,0.8-3,0.8-4.7s-0.2-3.4-0.8-4.7
		c-0.6-1.5-1.3-2.5-2.3-3.6s-2.1-1.7-3.4-2.1c-1.3-0.4-2.5-0.8-4-0.8s-2.8,0.2-4,0.8c-1.3,0.6-2.3,1.3-3.4,2.3s-1.7,2.1-2.3,3.6
		s-0.8,3-0.8,4.7c0,1.7,0.2,3.2,0.8,4.7s1.3,2.5,2.3,3.6s2.1,1.7,3.4,2.3C183.5,82.4,184.8,82.6,186.3,82.6z"/>
	<path class="st0" d="M221.4,46.6c-0.8,0-1.7-0.2-2.5-0.4c-0.8-0.4-1.5-0.8-2.1-1.5c-0.6-0.6-1.1-1.3-1.5-2.1
		c-0.4-0.8-0.4-1.7-0.4-2.5c0-1.1,0.2-1.9,0.4-2.5c0.4-0.8,0.8-1.5,1.5-2.1s1.3-1.1,2.1-1.5c0.8-0.4,1.7-0.4,2.5-0.4
		c1.9,0,3.4,0.6,4.9,1.9c1.3,1.3,1.9,3,1.9,4.7c0,1.9-0.6,3.4-1.9,4.7C224.8,45.7,223.1,46.6,221.4,46.6z M216.1,91V51.7h10.6v39.2
		h-10.6V91z"/>
	<path class="st0" d="M236.2,91V33.7h10.6V91H236.2z"/>
	<path class="st0" d="M306.9,81.7c-2.8,3.4-6.1,5.9-9.9,7.8c-3.8,1.9-8,2.8-12.9,2.8c-4.2,0-8.3-0.8-11.9-2.3s-6.8-3.6-9.5-6.4
		c-2.8-2.8-4.9-5.9-6.4-9.5c-1.5-3.6-2.3-7.6-2.3-11.9s0.8-8,2.3-11.9c1.5-3.6,3.6-6.8,6.4-9.5s5.9-4.9,9.5-6.4
		c3.6-1.3,7.6-2.1,11.9-2.1c4.7,0,8.7,0.8,12.1,2.3c3.4,1.7,6.6,4,9.3,7l-7.6,7.4c-1.7-1.9-3.6-3.6-5.9-4.7
		c-2.1-1.3-4.9-1.7-7.8-1.7c-2.8,0-5.1,0.4-7.6,1.5c-2.3,0.8-4.4,2.3-6.1,4c-1.7,1.7-3.2,3.8-4,6.1c-0.8,2.3-1.5,5.1-1.5,8
		c0,3,0.4,5.7,1.5,8c1.1,2.3,2.3,4.4,4,6.1c1.7,1.7,3.8,3,6.1,4c2.3,0.8,4.9,1.5,7.6,1.5c3.2,0,6.1-0.6,8.5-1.9
		c2.5-1.3,4.7-3.2,6.6-5.5L306.9,81.7z"/>
	<path class="st0" d="M313.5,91V33.7h10.6V91H313.5z"/>
	<path class="st0" d="M351.2,50.4c3,0,5.9,0.4,8.3,1.5c2.5,1.1,4.7,2.5,6.6,4.2s3.2,4,4.2,6.6c1.1,2.5,1.5,5.3,1.5,8.5
		c0,3-0.4,5.9-1.5,8.5c-1.1,2.5-2.5,4.7-4.2,6.6c-1.7,1.9-4,3.2-6.6,4.2c-2.5,1.1-5.3,1.5-8.3,1.5c-3,0-5.9-0.4-8.3-1.5
		c-2.3-1.1-4.7-2.5-6.6-4.2c-1.9-1.9-3.2-4-4.2-6.6c-1.1-2.5-1.5-5.3-1.5-8.5c0-3,0.4-5.9,1.5-8.5c1.1-2.5,2.5-4.7,4.2-6.6
		c1.9-1.9,4-3.2,6.6-4.2C345.4,50.8,348.2,50.4,351.2,50.4z M351.2,82.6c1.3,0,2.5-0.2,3.8-0.8c1.3-0.4,2.3-1.3,3.4-2.1
		c1.1-1.1,1.7-2.1,2.3-3.6s0.8-3,0.8-4.7s-0.2-3.4-0.8-4.7c-0.6-1.5-1.3-2.5-2.3-3.6c-1.1-1.1-2.1-1.7-3.4-2.1
		c-1.3-0.4-2.5-0.8-3.8-0.8c-1.5,0-2.8,0.2-4,0.8c-1.3,0.4-2.3,1.3-3.2,2.1c-1.1,1.1-1.7,2.1-2.3,3.6c-0.6,1.5-0.8,3-0.8,4.7
		s0.2,3.4,0.8,4.7c0.6,1.3,1.3,2.5,2.3,3.6c1.1,1.1,2.1,1.7,3.2,2.1C348.4,82.4,349.7,82.6,351.2,82.6z"/>
	<path class="st0" d="M405.4,85.7h-0.6c-1.3,1.9-3,3.6-4.9,4.7c-2.1,1.1-4.4,1.7-7.2,1.7c-4.9,0-8.7-1.5-11-4.7
		c-2.3-3-3.6-7.2-3.6-12.1V51.7h10.6v22.4c0,2.8,0.6,4.9,1.9,6.4c1.3,1.3,3.2,2.1,5.5,2.1c1.5,0,2.8-0.2,3.8-0.8
		c1.1-0.6,2.1-1.5,2.8-2.5c0.6-1.1,1.3-2.3,1.7-3.6c0.4-1.5,0.6-3,0.6-4.4V51.9h10.6V91h-10.2V85.7z"/>
	<path class="st0" d="M453,86.2h-0.6c-1.1,1.7-2.5,3-4.4,4.2c-2.1,1.3-4.4,1.7-7.6,1.7c-2.5,0-4.9-0.4-7.2-1.5
		c-2.3-1.1-4.2-2.5-5.9-4.2c-1.7-1.7-3.2-4-4-6.6c-1.1-2.5-1.5-5.3-1.5-8.5c0-3,0.4-5.9,1.5-8.5c1.1-2.5,2.3-4.7,4-6.6
		c1.7-1.9,3.8-3.2,5.9-4.2c2.3-1.1,4.7-1.5,7.2-1.5c3,0,5.5,0.6,7.6,1.7c2.1,1.3,3.6,2.5,4.4,4.2h0.6l-0.6-5.5V33.7h10.6V91h-9.7
		v-4.9H453z M442.4,82.6c1.5,0,2.8-0.2,4-0.8c1.3-0.4,2.3-1.3,3.4-2.1c1.1-1.1,1.7-2.1,2.3-3.6c0.6-1.5,0.8-3,0.8-4.7
		s-0.2-3.4-0.8-4.7c-0.6-1.5-1.3-2.5-2.3-3.6c-1.1-1.1-2.1-1.7-3.4-2.1c-1.3-0.4-2.5-0.8-4-0.8c-1.5,0-2.8,0.2-4,0.8
		c-1.3,0.6-2.3,1.3-3.4,2.3c-1.1,1.1-1.7,2.1-2.3,3.6s-0.8,3-0.8,4.7c0,1.7,0.2,3.2,0.8,4.7c0.6,1.5,1.3,2.5,2.3,3.6
		c1.1,1.1,2.1,1.7,3.4,2.3C439.9,82.4,441.1,82.6,442.4,82.6z"/>
	<path class="st1" d="M480.1,91c-2.3,0-4.2-0.8-5.9-2.3c-1.7-1.5-2.5-3.4-2.5-5.7c0-2.1,0.8-4,2.5-5.7c1.7-1.5,3.6-2.3,5.9-2.3
		s4.2,0.8,5.9,2.3c1.7,1.5,2.3,3.4,2.3,5.7c0,2.1-0.8,4-2.3,5.7C484.3,90.2,482.4,91,480.1,91z"/>
	<path class="st0" d="M503.4,46.6c-0.8,0-1.7-0.2-2.5-0.4c-0.8-0.4-1.5-0.8-2.1-1.5c-0.6-0.6-1.1-1.3-1.5-2.1
		c-0.4-0.8-0.4-1.7-0.4-2.5c0-1.1,0.2-1.9,0.4-2.5c0.4-0.8,0.8-1.5,1.5-2.1c0.6-0.6,1.3-1.1,2.1-1.5c0.8-0.4,1.7-0.4,2.5-0.4
		c1.9,0,3.4,0.6,4.9,1.9c1.5,1.3,1.9,3,1.9,4.7c0,1.9-0.6,3.4-1.9,4.7C507,45.9,505.3,46.6,503.4,46.6z M498.1,91V51.7h10.6v39.2
		h-10.6V91z"/>
	<path class="st0" d="M536.4,50.4c3,0,5.9,0.4,8.3,1.5c2.5,1.1,4.7,2.5,6.6,4.2c1.9,1.7,3.2,4,4.2,6.6c1.1,2.5,1.5,5.3,1.5,8.5
		c0,3-0.4,5.9-1.5,8.5c-1.1,2.5-2.5,4.7-4.2,6.6s-4,3.2-6.6,4.2c-2.5,1.1-5.3,1.5-8.3,1.5c-3,0-5.9-0.4-8.3-1.5
		c-2.3-1.1-4.7-2.5-6.6-4.2c-1.9-1.9-3.2-4-4.2-6.6c-1.1-2.5-1.5-5.3-1.5-8.5c0-3,0.4-5.9,1.5-8.5s2.5-4.7,4.2-6.6
		c1.9-1.9,4-3.2,6.6-4.2C530.7,50.8,533.2,50.4,536.4,50.4z M536.4,82.6c1.3,0,2.5-0.2,3.8-0.8c1.3-0.4,2.3-1.3,3.4-2.1
		c1.1-1.1,1.7-2.1,2.3-3.6s0.8-3,0.8-4.7s-0.2-3.4-0.8-4.7c-0.6-1.5-1.3-2.5-2.3-3.6s-2.1-1.7-3.4-2.1c-1.3-0.4-2.5-0.8-3.8-0.8
		c-1.5,0-2.8,0.2-4,0.8c-1.3,0.4-2.3,1.3-3.2,2.1c-1.1,1.1-1.7,2.1-2.3,3.6s-0.8,3-0.8,4.7s0.2,3.4,0.8,4.7c0.6,1.3,1.3,2.5,2.3,3.6
		c1.1,1.1,2.1,1.7,3.2,2.1C533.6,82.4,534.9,82.6,536.4,82.6z"/>
</g>
<g>
	<g>
		<rect x="35" y="8.1" class="st1" width="52.3" height="14.6"/>
		<rect x="72.8" y="22.7" class="st1" width="14.6" height="70"/>
	</g>
	<rect x="6.3" y="77.3" class="st0" width="81.1" height="15.3"/>
	<rect x="6.3" y="50.4" class="st0" width="14.6" height="30.4"/>
	<rect x="6.1" y="34.1" transform="matrix(0.7312 -0.6821 0.6821 0.7312 -21.384 29.3536)" class="st0" width="41" height="15.5"/>

		<rect x="26.2" y="33.6" transform="matrix(0.7258 0.6879 -0.6879 0.7258 40.534 -19.9159)" class="st0" width="38.2" height="14.7"/>
</g>
</svg>
