<?xml version="1.0" encoding="utf-8"?>
<!-- Generator: Adobe Illustrator 22.0.0, SVG Export Plug-In . SVG Version: 6.00 Build 0)  -->
<svg version="1.1" id="Livello_1" xmlns="http://www.w3.org/2000/svg" xmlns:xlink="http://www.w3.org/1999/xlink" x="0px" y="0px"
	 viewBox="0 0 205.5 32" style="enable-background:new 0 0 205.5 32;" xml:space="preserve">
<style type="text/css">
	.st0{fill:#FFFFFF;}
	.st1{fill:#0CC906;}
</style>
<g>
	<path class="st0" d="M6.2,7.4v6.3h10.8v4.8H6.2v6.3h12.1v4.8H1.1V2.6h17.2v4.8H6.2z"/>
	<path class="st0" d="M35.4,27.4h-0.3c-0.5,0.8-1.2,1.4-2.1,2c-1,0.6-2.1,0.8-3.6,0.8c-1.2,0-2.3-0.2-3.4-0.7c-1.1-0.5-2-1.2-2.8-2
		c-0.8-0.9-1.5-1.9-1.9-3.1s-0.7-2.5-0.7-4c0-1.4,0.2-2.8,0.7-4s1.1-2.2,1.9-3.1c0.8-0.9,1.8-1.5,2.8-2c1.1-0.5,2.2-0.7,3.4-0.7
		c1.4,0,2.6,0.3,3.6,0.8c1,0.6,1.7,1.2,2.1,2h0.3l-0.3-2.6V2.6h5v27.1h-4.6V27.4z M30.5,25.7c0.7,0,1.3-0.1,1.9-0.4
		c0.6-0.2,1.1-0.6,1.6-1c0.5-0.5,0.8-1,1.1-1.7c0.3-0.7,0.4-1.4,0.4-2.2s-0.1-1.6-0.4-2.2c-0.3-0.7-0.6-1.2-1.1-1.7
		c-0.5-0.5-1-0.8-1.6-1c-0.6-0.2-1.2-0.4-1.9-0.4c-0.7,0-1.3,0.1-1.9,0.4c-0.6,0.3-1.1,0.6-1.6,1.1c-0.5,0.5-0.8,1-1.1,1.7
		c-0.3,0.7-0.4,1.4-0.4,2.2c0,0.8,0.1,1.5,0.4,2.2c0.3,0.7,0.6,1.2,1.1,1.7c0.5,0.5,1,0.8,1.6,1.1C29.2,25.6,29.8,25.7,30.5,25.7z"
		/>
	<path class="st0" d="M47.1,8.7c-0.4,0-0.8-0.1-1.2-0.2c-0.4-0.2-0.7-0.4-1-0.7c-0.3-0.3-0.5-0.6-0.7-1c-0.2-0.4-0.2-0.8-0.2-1.2
		c0-0.5,0.1-0.9,0.2-1.2c0.2-0.4,0.4-0.7,0.7-1c0.3-0.3,0.6-0.5,1-0.7c0.4-0.2,0.8-0.2,1.2-0.2c0.9,0,1.6,0.3,2.3,0.9
		c0.6,0.6,0.9,1.4,0.9,2.2c0,0.9-0.3,1.6-0.9,2.2C48.7,8.3,47.9,8.7,47.1,8.7z M44.6,29.7V11.1h5v18.5H44.6z"/>
	<path class="st0" d="M54.1,29.7V2.6h5v27.1H54.1z"/>
	<path class="st0" d="M87.5,25.3c-1.3,1.6-2.9,2.8-4.7,3.7s-3.8,1.3-6.1,1.3c-2,0-3.9-0.4-5.6-1.1c-1.7-0.7-3.2-1.7-4.5-3
		s-2.3-2.8-3-4.5c-0.7-1.7-1.1-3.6-1.1-5.6c0-2,0.4-3.8,1.1-5.6c0.7-1.7,1.7-3.2,3-4.5s2.8-2.3,4.5-3C72.8,2.4,74.7,2,76.7,2
		c2.2,0,4.1,0.4,5.7,1.1c1.6,0.8,3.1,1.9,4.4,3.3l-3.6,3.5c-0.8-0.9-1.7-1.7-2.8-2.2c-1-0.6-2.3-0.8-3.7-0.8c-1.3,0-2.4,0.2-3.6,0.7
		c-1.1,0.4-2.1,1.1-2.9,1.9c-0.8,0.8-1.5,1.8-1.9,2.9s-0.7,2.4-0.7,3.8c0,1.4,0.2,2.7,0.7,3.8s1.1,2.1,1.9,2.9
		c0.8,0.8,1.8,1.4,2.9,1.9c1.1,0.4,2.3,0.7,3.6,0.7c1.5,0,2.9-0.3,4-0.9c1.2-0.6,2.2-1.5,3.1-2.6L87.5,25.3z"/>
	<path class="st0" d="M90.6,29.7V2.6h5v27.1H90.6z"/>
	<path class="st0" d="M108.4,10.5c1.4,0,2.8,0.2,3.9,0.7c1.2,0.5,2.2,1.2,3.1,2s1.5,1.9,2,3.1s0.7,2.5,0.7,4c0,1.4-0.2,2.8-0.7,4
		s-1.2,2.2-2,3.1s-1.9,1.5-3.1,2c-1.2,0.5-2.5,0.7-3.9,0.7s-2.8-0.2-3.9-0.7s-2.2-1.2-3.1-2c-0.9-0.9-1.5-1.9-2-3.1s-0.7-2.5-0.7-4
		c0-1.4,0.2-2.8,0.7-4s1.2-2.2,2-3.1c0.9-0.9,1.9-1.5,3.1-2S107,10.5,108.4,10.5z M108.4,25.7c0.6,0,1.2-0.1,1.8-0.4
		c0.6-0.2,1.1-0.6,1.6-1c0.5-0.5,0.8-1,1.1-1.7c0.3-0.7,0.4-1.4,0.4-2.2s-0.1-1.6-0.4-2.2c-0.3-0.7-0.6-1.2-1.1-1.7
		c-0.5-0.5-1-0.8-1.6-1c-0.6-0.2-1.2-0.4-1.8-0.4c-0.7,0-1.3,0.1-1.9,0.4c-0.6,0.2-1.1,0.6-1.5,1c-0.5,0.5-0.8,1-1.1,1.7
		s-0.4,1.4-0.4,2.2s0.1,1.6,0.4,2.2s0.6,1.2,1.1,1.7c0.5,0.5,1,0.8,1.5,1C107.1,25.6,107.7,25.7,108.4,25.7z"/>
	<path class="st0" d="M134,27.2h-0.3c-0.6,0.9-1.4,1.7-2.3,2.2c-1,0.5-2.1,0.8-3.4,0.8c-2.3,0-4.1-0.7-5.2-2.2
		c-1.1-1.4-1.7-3.4-1.7-5.7V11.1h5v10.6c0,1.3,0.3,2.3,0.9,3c0.6,0.6,1.5,1,2.6,1c0.7,0,1.3-0.1,1.8-0.4c0.5-0.3,1-0.7,1.3-1.2
		s0.6-1.1,0.8-1.7c0.2-0.7,0.3-1.4,0.3-2.1v-9.1h5v18.5H134V27.2z"/>
	<path class="st0" d="M156.5,27.4h-0.3c-0.5,0.8-1.2,1.4-2.1,2c-1,0.6-2.1,0.8-3.6,0.8c-1.2,0-2.3-0.2-3.4-0.7c-1.1-0.5-2-1.2-2.8-2
		s-1.5-1.9-1.9-3.1c-0.5-1.2-0.7-2.5-0.7-4c0-1.4,0.2-2.8,0.7-4c0.5-1.2,1.1-2.2,1.9-3.1s1.8-1.5,2.8-2c1.1-0.5,2.2-0.7,3.4-0.7
		c1.4,0,2.6,0.3,3.6,0.8c1,0.6,1.7,1.2,2.1,2h0.3l-0.3-2.6V2.6h5v27.1h-4.6V27.4z M151.5,25.7c0.7,0,1.3-0.1,1.9-0.4
		c0.6-0.2,1.1-0.6,1.6-1c0.5-0.5,0.8-1,1.1-1.7c0.3-0.7,0.4-1.4,0.4-2.2s-0.1-1.6-0.4-2.2c-0.3-0.7-0.6-1.2-1.1-1.7
		c-0.5-0.5-1-0.8-1.6-1c-0.6-0.2-1.2-0.4-1.9-0.4s-1.3,0.1-1.9,0.4c-0.6,0.3-1.1,0.6-1.6,1.1c-0.5,0.5-0.8,1-1.1,1.7
		s-0.4,1.4-0.4,2.2c0,0.8,0.1,1.5,0.4,2.2c0.3,0.7,0.6,1.2,1.1,1.7c0.5,0.5,1,0.8,1.6,1.1C150.3,25.6,150.9,25.7,151.5,25.7z"/>
	<path class="st1" d="M169.3,29.7c-1.1,0-2-0.4-2.8-1.1c-0.8-0.7-1.2-1.6-1.2-2.7c0-1,0.4-1.9,1.2-2.7c0.8-0.7,1.7-1.1,2.8-1.1
		s2,0.4,2.8,1.1c0.8,0.7,1.1,1.6,1.1,2.7c0,1-0.4,1.9-1.1,2.7C171.3,29.3,170.4,29.7,169.3,29.7z"/>
	<path class="st0" d="M180.3,8.7c-0.4,0-0.8-0.1-1.2-0.2c-0.4-0.2-0.7-0.4-1-0.7s-0.5-0.6-0.7-1c-0.2-0.4-0.2-0.8-0.2-1.2
		c0-0.5,0.1-0.9,0.2-1.2c0.2-0.4,0.4-0.7,0.7-1c0.3-0.3,0.6-0.5,1-0.7s0.8-0.2,1.2-0.2c0.9,0,1.6,0.3,2.3,0.9s0.9,1.4,0.9,2.2
		c0,0.9-0.3,1.6-0.9,2.2S181.2,8.7,180.3,8.7z M177.8,29.7V11.1h5v18.5H177.8z"/>
	<path class="st0" d="M195.9,10.5c1.4,0,2.8,0.2,3.9,0.7c1.2,0.5,2.2,1.2,3.1,2s1.5,1.9,2,3.1s0.7,2.5,0.7,4c0,1.4-0.2,2.8-0.7,4
		s-1.2,2.2-2,3.1s-1.9,1.5-3.1,2c-1.2,0.5-2.5,0.7-3.9,0.7s-2.8-0.2-3.9-0.7s-2.2-1.2-3.1-2c-0.9-0.9-1.5-1.9-2-3.1s-0.7-2.5-0.7-4
		c0-1.4,0.2-2.8,0.7-4s1.2-2.2,2-3.1c0.9-0.9,1.9-1.5,3.1-2S194.4,10.5,195.9,10.5z M195.9,25.7c0.6,0,1.2-0.1,1.8-0.4
		c0.6-0.2,1.1-0.6,1.6-1c0.5-0.5,0.8-1,1.1-1.7c0.3-0.7,0.4-1.4,0.4-2.2s-0.1-1.6-0.4-2.2c-0.3-0.7-0.6-1.2-1.1-1.7
		c-0.5-0.5-1-0.8-1.6-1c-0.6-0.2-1.2-0.4-1.8-0.4c-0.7,0-1.3,0.1-1.9,0.4c-0.6,0.2-1.1,0.6-1.5,1c-0.5,0.5-0.8,1-1.1,1.7
		s-0.4,1.4-0.4,2.2s0.1,1.6,0.4,2.2s0.6,1.2,1.1,1.7c0.5,0.5,1,0.8,1.5,1C194.6,25.6,195.2,25.7,195.9,25.7z"/>
</g>
</svg>
