<?xml version="1.0" encoding="utf-8"?>
<!-- Generator: Adobe Illustrator 24.1.3, SVG Export Plug-In . SVG Version: 6.00 Build 0)  -->
<svg version="1.1" xmlns="http://www.w3.org/2000/svg" xmlns:xlink="http://www.w3.org/1999/xlink" x="0px" y="0px"
	 viewBox="0 0 128 128" style="enable-background:new 0 0 128 128;" xml:space="preserve">
<style type="text/css">
	.st0{fill:url(#SVGID_1_);}
	.st1{fill:url(#SVGID_2_);}
	.st2{fill:url(#SVGID_3_);}
	.st3{fill:#04121E;}
	.st4{fill:#FFFFFF;}
	.st5{fill:url(#SVGID_4_);}
	.st6{fill:url(#SVGID_5_);}
	.st7{fill:url(#SVGID_6_);}
	.st8{fill:#F7EA08;}
	.st9{fill:#84EDF7;}
	.st10{fill:url(#SVGID_7_);}
	.st11{fill:url(#SVGID_8_);}
	.st12{fill:#106DDF;}
	.st13{fill:url(#SVGID_9_);}
	.st14{fill:url(#SVGID_10_);}
	.st15{fill:url(#SVGID_11_);}
	.st16{fill:url(#SVGID_12_);}
	.st17{fill:url(#SVGID_13_);}
	.st18{fill:url(#SVGID_14_);}
	.st19{fill:url(#SVGID_15_);}
	.st20{fill:url(#SVGID_16_);}
	.st21{fill:url(#SVGID_17_);}
	.st22{fill:url(#SVGID_18_);}
	.st23{fill:url(#SVGID_19_);}
	.st24{fill:url(#SVGID_20_);}
	.st25{fill:none;stroke:#106DDF;stroke-width:30;stroke-miterlimit:10;}
	.st26{fill:none;stroke:#106DDF;stroke-width:20;stroke-miterlimit:10;}
	.st27{fill:none;stroke:#A1519A;stroke-miterlimit:10;}
	.st28{fill:#C9E0FE;}
	.st29{fill:url(#SVGID_21_);}
	.st30{fill:#0A187F;}
	.st31{fill:#177ADD;}
	.st32{fill:url(#SVGID_22_);}
	.st33{fill:url(#SVGID_23_);}
	.st34{fill:url(#SVGID_24_);}
</style>
<g id="Back">
</g>
<g id="Cloud">
</g>
<g id="edilcoud">
</g>
<g id="destra">
</g>
<g id="sinistra">
</g>
<g id="centrodestra">
</g>
<g id="centrosinistra">
</g>
<g id="nuovadavanti">
	<path class="st30" d="M6.21,116.23c-1.19,0-2.24-0.26-3.16-0.78c-0.92-0.52-1.64-1.24-2.16-2.17c-0.52-0.92-0.78-1.98-0.78-3.17
		c0-1.2,0.25-2.26,0.74-3.18c0.49-0.92,1.17-1.64,2.04-2.17c0.87-0.53,1.86-0.79,2.99-0.79c1.11,0,2.09,0.25,2.92,0.76
		c0.83,0.51,1.47,1.21,1.93,2.1c0.45,0.9,0.68,1.91,0.68,3.06c0,0.23-0.07,0.42-0.22,0.56c-0.15,0.14-0.34,0.21-0.57,0.21H1.25
		v-1.41h9.53l-0.95,0.68c0.01-0.85-0.14-1.61-0.46-2.29c-0.32-0.67-0.78-1.2-1.38-1.58c-0.59-0.38-1.3-0.57-2.12-0.57
		c-0.84,0-1.57,0.2-2.2,0.59c-0.63,0.4-1.12,0.94-1.46,1.64c-0.34,0.7-0.52,1.49-0.52,2.39c0,0.9,0.19,1.69,0.58,2.38
		c0.39,0.69,0.92,1.23,1.6,1.63c0.67,0.4,1.45,0.59,2.33,0.59c0.53,0,1.06-0.09,1.6-0.28c0.54-0.18,0.96-0.41,1.29-0.69
		c0.16-0.13,0.34-0.2,0.55-0.21c0.21-0.01,0.38,0.05,0.53,0.16c0.19,0.18,0.29,0.37,0.3,0.57c0.01,0.21-0.08,0.38-0.25,0.53
		c-0.48,0.41-1.1,0.75-1.85,1.02C7.62,116.09,6.9,116.23,6.21,116.23z"/>
	<path class="st30" d="M19.3,116.23c-1.16,0-2.2-0.27-3.13-0.8c-0.92-0.54-1.65-1.27-2.19-2.19c-0.54-0.92-0.8-1.97-0.8-3.15
		c0-1.16,0.26-2.2,0.78-3.13c0.52-0.92,1.23-1.65,2.12-2.19c0.9-0.54,1.91-0.8,3.04-0.8c0.98,0,1.87,0.21,2.66,0.63
		c0.79,0.42,1.43,0.97,1.91,1.66v-6.47c0-0.26,0.08-0.47,0.24-0.63c0.16-0.15,0.37-0.23,0.62-0.23c0.25,0,0.45,0.08,0.62,0.23
		c0.16,0.15,0.24,0.36,0.24,0.63v10.39c-0.03,1.14-0.31,2.18-0.85,3.09c-0.54,0.92-1.26,1.64-2.18,2.17S20.45,116.23,19.3,116.23z
		 M19.3,114.69c0.85,0,1.61-0.2,2.28-0.61c0.67-0.4,1.2-0.95,1.58-1.64c0.39-0.69,0.58-1.47,0.58-2.36c0-0.87-0.19-1.65-0.58-2.34
		c-0.39-0.7-0.92-1.24-1.58-1.64c-0.67-0.4-1.43-0.59-2.28-0.59c-0.84,0-1.59,0.2-2.27,0.59c-0.68,0.4-1.21,0.94-1.61,1.64
		c-0.4,0.7-0.59,1.48-0.59,2.34c0,0.88,0.2,1.67,0.59,2.36c0.4,0.69,0.93,1.24,1.61,1.64C17.71,114.48,18.47,114.69,19.3,114.69z"/>
	<path class="st30" d="M30.57,101.79c-0.32,0-0.6-0.12-0.84-0.35c-0.23-0.23-0.35-0.52-0.35-0.86c0-0.37,0.12-0.66,0.36-0.87
		c0.24-0.21,0.52-0.32,0.85-0.32c0.31,0,0.58,0.11,0.83,0.32c0.24,0.21,0.36,0.5,0.36,0.87c0,0.34-0.12,0.62-0.35,0.86
		C31.19,101.67,30.91,101.79,30.57,101.79z M30.59,116.12c-0.26,0-0.47-0.08-0.63-0.23s-0.23-0.36-0.23-0.63v-10.32
		c0-0.26,0.08-0.47,0.23-0.63s0.36-0.23,0.63-0.23c0.25,0,0.45,0.08,0.61,0.23c0.15,0.15,0.23,0.36,0.23,0.63v10.32
		c0,0.26-0.08,0.47-0.23,0.63C31.04,116.04,30.84,116.12,30.59,116.12z"/>
	<path class="st30" d="M38.34,116.12c-0.59,0-1.11-0.16-1.57-0.48c-0.46-0.32-0.82-0.77-1.08-1.34c-0.26-0.57-0.39-1.23-0.39-1.98
		V99.76c0-0.25,0.08-0.45,0.23-0.61c0.15-0.15,0.36-0.23,0.61-0.23c0.25,0,0.45,0.08,0.61,0.23c0.15,0.15,0.23,0.36,0.23,0.61v12.54
		c0,0.63,0.13,1.14,0.39,1.54c0.26,0.4,0.58,0.59,0.98,0.59h0.55c0.22,0,0.4,0.08,0.53,0.23c0.13,0.15,0.2,0.36,0.2,0.61
		c0,0.25-0.09,0.45-0.28,0.61c-0.18,0.15-0.42,0.23-0.72,0.23H38.34z"/>
	<path class="st30" d="M46.66,116.23c-1.16,0-2.19-0.27-3.09-0.8c-0.9-0.54-1.61-1.27-2.13-2.19c-0.52-0.92-0.78-1.97-0.78-3.13
		c0-1.17,0.25-2.22,0.75-3.15c0.5-0.92,1.18-1.65,2.05-2.19c0.87-0.54,1.86-0.8,2.99-0.8c0.89,0,1.72,0.18,2.48,0.53
		c0.76,0.35,1.42,0.88,1.99,1.58c0.16,0.18,0.22,0.36,0.18,0.56c-0.04,0.2-0.17,0.37-0.37,0.52c-0.16,0.12-0.34,0.16-0.54,0.12
		c-0.2-0.04-0.37-0.14-0.52-0.32c-0.85-0.97-1.92-1.45-3.21-1.45c-0.82,0-1.54,0.2-2.17,0.59c-0.62,0.4-1.11,0.94-1.45,1.63
		c-0.34,0.69-0.52,1.48-0.52,2.38c0,0.88,0.18,1.67,0.55,2.36c0.37,0.69,0.88,1.23,1.54,1.63c0.66,0.4,1.42,0.59,2.27,0.59
		c0.57,0,1.1-0.08,1.57-0.23c0.48-0.15,0.9-0.39,1.27-0.72c0.18-0.15,0.36-0.23,0.55-0.24c0.19-0.01,0.37,0.04,0.53,0.18
		c0.18,0.16,0.28,0.34,0.3,0.55c0.02,0.21-0.05,0.38-0.21,0.53C49.59,115.73,48.26,116.23,46.66,116.23z"/>
	<path class="st30" d="M57,116.12c-0.59,0-1.11-0.16-1.57-0.48c-0.46-0.32-0.82-0.77-1.08-1.34c-0.26-0.57-0.39-1.23-0.39-1.98
		V99.76c0-0.25,0.08-0.45,0.23-0.61c0.15-0.15,0.36-0.23,0.61-0.23c0.25,0,0.45,0.08,0.61,0.23c0.15,0.15,0.23,0.36,0.23,0.61v12.54
		c0,0.63,0.13,1.14,0.39,1.54c0.26,0.4,0.58,0.59,0.98,0.59h0.55c0.22,0,0.4,0.08,0.53,0.23c0.13,0.15,0.2,0.36,0.2,0.61
		c0,0.25-0.09,0.45-0.28,0.61c-0.18,0.15-0.42,0.23-0.72,0.23H57z"/>
	<path class="st30" d="M65.43,116.23c-1.17,0-2.22-0.26-3.15-0.79c-0.92-0.53-1.65-1.25-2.18-2.18c-0.53-0.92-0.79-1.97-0.79-3.15
		c0-1.19,0.26-2.24,0.79-3.17c0.53-0.92,1.25-1.65,2.18-2.18c0.92-0.53,1.97-0.79,3.15-0.79s2.22,0.26,3.14,0.79
		c0.92,0.53,1.64,1.25,2.17,2.18c0.53,0.92,0.8,1.98,0.81,3.17c0,1.17-0.27,2.22-0.8,3.15c-0.54,0.92-1.26,1.65-2.18,2.18
		C67.65,115.96,66.61,116.23,65.43,116.23z M65.43,114.69c0.85,0,1.61-0.2,2.29-0.59c0.67-0.4,1.2-0.94,1.58-1.63
		c0.38-0.69,0.57-1.47,0.57-2.36c0-0.88-0.19-1.67-0.57-2.37c-0.38-0.7-0.91-1.24-1.58-1.64s-1.44-0.59-2.29-0.59
		c-0.85,0-1.61,0.2-2.29,0.59c-0.68,0.4-1.21,0.94-1.6,1.64c-0.39,0.7-0.58,1.49-0.58,2.37c0,0.88,0.19,1.67,0.58,2.36
		c0.39,0.69,0.92,1.23,1.6,1.63C63.82,114.49,64.58,114.69,65.43,114.69z"/>
	<path class="st30" d="M80.09,116.25c-1.04,0-1.97-0.22-2.8-0.65c-0.82-0.43-1.47-1.07-1.95-1.9c-0.48-0.84-0.72-1.86-0.72-3.06
		v-5.72c0-0.23,0.08-0.43,0.24-0.59c0.16-0.16,0.36-0.24,0.59-0.24c0.25,0,0.45,0.08,0.62,0.24c0.16,0.16,0.24,0.36,0.24,0.59v5.72
		c0,0.91,0.17,1.66,0.52,2.24c0.34,0.59,0.81,1.03,1.41,1.32c0.59,0.29,1.27,0.44,2.01,0.44c0.72,0,1.37-0.14,1.95-0.42
		c0.58-0.28,1.04-0.66,1.38-1.14c0.34-0.48,0.51-1.03,0.51-1.65h1.21c-0.04,0.92-0.3,1.75-0.76,2.48c-0.46,0.73-1.08,1.3-1.86,1.72
		C81.91,116.04,81.04,116.25,80.09,116.25z M84.93,116.12c-0.25,0-0.45-0.08-0.61-0.23c-0.15-0.15-0.23-0.36-0.23-0.63v-10.34
		c0-0.25,0.08-0.45,0.23-0.61c0.15-0.15,0.36-0.23,0.61-0.23c0.25,0,0.45,0.08,0.62,0.23c0.16,0.15,0.24,0.36,0.24,0.61v10.34
		c0,0.26-0.08,0.47-0.24,0.63C85.39,116.04,85.18,116.12,84.93,116.12z"/>
	<path class="st30" d="M95.23,116.23c-1.16,0-2.2-0.27-3.13-0.8c-0.92-0.54-1.65-1.27-2.19-2.19c-0.54-0.92-0.8-1.97-0.8-3.15
		c0-1.16,0.26-2.2,0.78-3.13c0.52-0.92,1.23-1.65,2.12-2.19c0.9-0.54,1.91-0.8,3.04-0.8c0.98,0,1.87,0.21,2.66,0.63
		c0.79,0.42,1.43,0.97,1.91,1.66v-6.47c0-0.26,0.08-0.47,0.24-0.63c0.16-0.15,0.37-0.23,0.62-0.23c0.25,0,0.45,0.08,0.62,0.23
		c0.16,0.15,0.24,0.36,0.24,0.63v10.39c-0.03,1.14-0.31,2.18-0.85,3.09c-0.54,0.92-1.26,1.64-2.18,2.17
		C97.41,115.96,96.37,116.23,95.23,116.23z M95.23,114.69c0.85,0,1.61-0.2,2.28-0.61c0.67-0.4,1.2-0.95,1.58-1.64
		c0.39-0.69,0.58-1.47,0.58-2.36c0-0.87-0.19-1.65-0.58-2.34c-0.39-0.7-0.92-1.24-1.58-1.64c-0.67-0.4-1.43-0.59-2.28-0.59
		c-0.84,0-1.59,0.2-2.27,0.59c-0.68,0.4-1.21,0.94-1.61,1.64c-0.4,0.7-0.59,1.48-0.59,2.34c0,0.88,0.2,1.67,0.59,2.36
		c0.4,0.69,0.93,1.24,1.61,1.64C93.64,114.48,94.39,114.69,95.23,114.69z"/>
	<path class="st8" d="M105.71,116.47c-0.35,0-0.65-0.12-0.9-0.37c-0.25-0.25-0.37-0.55-0.37-0.9c0-0.37,0.13-0.67,0.39-0.92
		c0.26-0.25,0.55-0.37,0.89-0.37c0.35,0,0.65,0.13,0.9,0.39c0.25,0.26,0.37,0.56,0.37,0.91c0,0.34-0.12,0.63-0.36,0.89
		C106.38,116.34,106.07,116.47,105.71,116.47z"/>
	<path class="st31" d="M111.25,101.79c-0.32,0-0.6-0.12-0.84-0.35c-0.23-0.23-0.35-0.52-0.35-0.86c0-0.37,0.12-0.66,0.36-0.87
		c0.24-0.21,0.52-0.32,0.85-0.32c0.31,0,0.58,0.11,0.83,0.32c0.24,0.21,0.36,0.5,0.36,0.87c0,0.34-0.12,0.62-0.35,0.86
		C111.88,101.67,111.59,101.79,111.25,101.79z M111.27,116.12c-0.26,0-0.47-0.08-0.63-0.23c-0.15-0.15-0.23-0.36-0.23-0.63v-10.32
		c0-0.26,0.08-0.47,0.23-0.63c0.15-0.15,0.36-0.23,0.63-0.23c0.25,0,0.45,0.08,0.61,0.23c0.15,0.15,0.23,0.36,0.23,0.63v10.32
		c0,0.26-0.08,0.47-0.23,0.63C111.73,116.04,111.52,116.12,111.27,116.12z"/>
	<path class="st31" d="M121.9,116.23c-1.17,0-2.22-0.26-3.15-0.79c-0.92-0.53-1.65-1.25-2.18-2.18c-0.53-0.92-0.79-1.97-0.79-3.15
		c0-1.19,0.26-2.24,0.79-3.17c0.53-0.92,1.25-1.65,2.18-2.18c0.92-0.53,1.97-0.79,3.15-0.79s2.22,0.26,3.14,0.79
		c0.92,0.53,1.64,1.25,2.17,2.18c0.53,0.92,0.8,1.98,0.81,3.17c0,1.17-0.27,2.22-0.8,3.15c-0.54,0.92-1.26,1.65-2.18,2.18
		C124.12,115.96,123.08,116.23,121.9,116.23z M121.9,114.69c0.85,0,1.61-0.2,2.29-0.59c0.67-0.4,1.2-0.94,1.58-1.63
		c0.38-0.69,0.57-1.47,0.57-2.36c0-0.88-0.19-1.67-0.57-2.37c-0.38-0.7-0.91-1.24-1.58-1.64s-1.44-0.59-2.29-0.59
		s-1.61,0.2-2.29,0.59c-0.68,0.4-1.21,0.94-1.6,1.64c-0.39,0.7-0.58,1.49-0.58,2.37c0,0.88,0.19,1.67,0.58,2.36
		c0.39,0.69,0.92,1.23,1.6,1.63C120.29,114.49,121.05,114.69,121.9,114.69z"/>
	<linearGradient id="SVGID_1_" gradientUnits="userSpaceOnUse" x1="0" y1="45.4543" x2="127.9594" y2="45.4543">
		<stop  offset="0.3004" style="stop-color:#0A187F"/>
		<stop  offset="0.9894" style="stop-color:#177ADD"/>
	</linearGradient>
	<path class="st0" d="M112.34,37.86c0.26-1.3,0.39-2.64,0.39-4c0-11.2-9.11-20.32-20.32-20.32c-2.7,0-5.3,0.52-7.73,1.52
		C78.47,5.78,67.9,0,56.53,0c-15.3,0-28.54,10.2-32.6,24.67C17.59,26.62,11.9,30.42,7.66,35.6c-0.9,1.1-1.74,2.27-2.5,3.47
		C1.79,44.45,0,50.67,0,57.05c0,6.61,1.91,13.01,5.51,18.52c6.29,9.6,16.89,15.34,28.35,15.34l66.73-0.01l0.12,0
		c2.63-0.07,5.23-0.5,7.73-1.29c11.67-3.69,19.52-14.41,19.52-26.66C127.96,52.21,121.74,42.5,112.34,37.86z M105.52,80.38
		c-1.61,0.51-3.29,0.79-5,0.84l-22.46,0.01v-3.61v-26.7c-2.09-2.95-4.85-5.39-8.06-7.09v37.41l-3.02,0V70.98v-0.34V27.36v-0.34
		c-2.41-0.84-4.99-1.31-7.68-1.31c-0.13,0-0.25,0.01-0.38,0.01v0.32v45.91v0.32v8.95l-3.02,0v-8.95v-0.32V26.04v-0.32
		c-0.13,0-0.25-0.01-0.38-0.01c-2.69,0-5.27,0.46-7.68,1.31v0.34v43.28v0.34v10.25l-3.02,0V43.82c-3.21,1.7-5.97,4.14-8.06,7.09
		v26.7v3.62l-2.89,0c-8.19,0-15.76-4.1-20.26-10.96c-2.57-3.93-3.93-8.5-3.93-13.23c0-4.56,1.27-9,3.68-12.84
		c0.54-0.86,1.14-1.69,1.79-2.48v0c3.51-4.29,8.42-7.26,13.81-8.37l3.2-0.66l0.59-3.21c2.1-11.48,12.1-19.81,23.79-19.81
		c9.39,0,18.01,5.51,21.96,14.04l2.57,5.54l4.81-3.77c1.89-1.48,4.16-2.26,6.56-2.26c5.87,0,10.64,4.77,10.64,10.64
		c0,1.65-0.37,3.23-1.09,4.7l-2.57,5.21l5.59,1.58c7.83,2.22,13.3,9.45,13.3,17.59C118.29,70.96,113.16,77.96,105.52,80.38z"/>
</g>
</svg>
