<svg id="Group_13" data-name="Group 13" xmlns="http://www.w3.org/2000/svg" xmlns:xlink="http://www.w3.org/1999/xlink" width="136.5" height="103.9" viewBox="0 0 136.5 103.9">
  <defs>
    <clipPath id="clip-path">
      <rect id="Rectangle_1" data-name="Rectangle 1" width="136.5" height="103.9" transform="translate(0 0)" fill="none"/>
    </clipPath>
    <clipPath id="clip-path-2">
      <path id="Path_5" data-name="Path 5" d="M5.01,64.48A34.063,34.063,0,0,0,39.19,98.891s11.19,0,13.1-.011v-.01h-.561a7.3,7.3,0,0,1-7.3-7.3v-2.1h-5.3a24.431,24.431,0,0,1-8.49-47.44,13.107,13.107,0,0,0,2.74-3.61,19.062,19.062,0,0,0,1.84-7.04A33.9,33.9,0,0,0,5.01,64.48" fill="none"/>
    </clipPath>
    <clipPath id="clip-path-4">
      <path id="Path_7" data-name="Path 7" d="M45.47,13.81A33.842,33.842,0,0,0,35.23,31.38l-.01.011a19.259,19.259,0,0,1-1.84,7.039,13.329,13.329,0,0,1-2.74,3.609,24.769,24.769,0,0,1,5.09-1.219,11.572,11.572,0,0,0,6.41-2.94c.01-.02.03-.03.049-.05a7.12,7.12,0,0,0,2.1-3.8,24.44,24.44,0,0,1,45.97-5.79c1.17,1.4,2.37,1.981,4.66,2.389a27.072,27.072,0,0,0,6.22.2A33.855,33.855,0,0,0,45.47,13.81" fill="none"/>
    </clipPath>
    <clipPath id="clip-path-6">
      <path id="Path_10" data-name="Path 10" d="M91.991,33.14a9.3,9.3,0,0,0,2.989,4.93l.07.05a9.24,9.24,0,0,0,5,2.129A24.688,24.688,0,0,1,97.09,89.48H53.89c-.149,1.65-.18,5.01,1.8,7.01a9.307,9.307,0,0,0,4.75,2.4L97.39,98.9a34.1,34.1,0,0,0,3.759-68l-.009-.01c0-.021-.01-.03-.01-.039a27.782,27.782,0,0,1-6.22-.2c-2.29-.411-3.49-.99-4.66-2.39a24.451,24.451,0,0,1,1.741,4.88" fill="none"/>
    </clipPath>
  </defs>
  <g id="Group_2" data-name="Group 2">
    <g id="Group_1" data-name="Group 1" clip-path="url(#clip-path)">
      <path id="Path_1" data-name="Path 1" d="M91.99,97.66V54.41a29.291,29.291,0,0,0-9.421-8.64V97.66Z" fill="#fff"/>
      <path id="Path_2" data-name="Path 2" d="M66.57,97.66V29.28a28.93,28.93,0,0,0-9.42,2.08v66.3Z" fill="#fff"/>
      <path id="Path_3" data-name="Path 3" d="M79.281,97.66V31.48A29.032,29.032,0,0,0,69.859,29.3V97.66Z" fill="#fff"/>
      <path id="Path_4" data-name="Path 4" d="M52.29,98.88c-1.91.011-13.1.011-13.1.011A33.854,33.854,0,0,1,35.22,31.38a19.092,19.092,0,0,1-1.84,7.04,13.127,13.127,0,0,1-2.74,3.61,24.431,24.431,0,0,0,8.49,47.441h5.3v2.1a7.3,7.3,0,0,0,7.3,7.3h.561Z" fill="#fff"/>
    </g>
  </g>
  <g id="Group_4" data-name="Group 4">
    <g id="Group_3" data-name="Group 3" clip-path="url(#clip-path-2)">
      <rect id="Rectangle_2" data-name="Rectangle 2" width="57.29" height="77.5" transform="translate(0 26.39)" fill="#fff"/>
    </g>
  </g>
  <g id="Group_6" data-name="Group 6">
    <g id="Group_5" data-name="Group 5" clip-path="url(#clip-path)">
      <path id="Path_6" data-name="Path 6" d="M101.14,30.83a27.117,27.117,0,0,1-6.22-.2c-2.29-.409-3.49-.989-4.66-2.39a24.44,24.44,0,0,0-45.97,5.79,7.118,7.118,0,0,1-2.1,3.8c-.02.021-.04.03-.05.05a11.565,11.565,0,0,1-6.41,2.94,24.77,24.77,0,0,0-5.09,1.22,13.36,13.36,0,0,0,2.74-3.609,19.269,19.269,0,0,0,1.84-7.04l.01-.011a33.855,33.855,0,0,1,65.91-.55" fill="#fff"/>
    </g>
  </g>
  <g id="Group_8" data-name="Group 8">
    <g id="Group_7" data-name="Group 7" clip-path="url(#clip-path-4)">
      <rect id="Rectangle_4" data-name="Rectangle 4" width="80.5" height="47.04" transform="translate(25.64 0)" fill="#fff"/>
    </g>
  </g>
  <g id="Group_10" data-name="Group 10">
    <g id="Group_9" data-name="Group 9" clip-path="url(#clip-path)">
      <path id="Path_8" data-name="Path 8" d="M53.89,89.471h-.01c-.009,0-.009-.011-.009-.011V45.63c-.011-.01-.011-.01-.021-.01a29.256,29.256,0,0,0-9.4,8.37v37.6a7.3,7.3,0,0,0,7.3,7.3h8.69a9.227,9.227,0,0,1-4.739-2.4c-1.991-2-1.96-5.37-1.811-7.019" fill="#fff"/>
      <path id="Path_9" data-name="Path 9" d="M131.5,64.79A34.146,34.146,0,0,1,97.39,98.9l-36.951-.009a9.307,9.307,0,0,1-4.75-2.4c-1.979-2-1.949-5.36-1.8-7.01h43.2a24.688,24.688,0,0,0,2.96-49.23,9.242,9.242,0,0,1-5-2.13l-.071-.05a9.3,9.3,0,0,1-2.989-4.929,24.386,24.386,0,0,0-1.74-4.88c1.17,1.4,2.37,1.979,4.66,2.389a27.781,27.781,0,0,0,6.22.2c0,.009.01.019.01.04l.009.009A34.135,34.135,0,0,1,131.5,64.79" fill="#fff"/>
    </g>
  </g>
  <g id="Group_12" data-name="Group 12">
    <g id="Group_11" data-name="Group 11" clip-path="url(#clip-path-6)">
      <rect id="Rectangle_6" data-name="Rectangle 6" width="87.67" height="80.65" transform="translate(48.83 23.25)" fill="#fff"/>
    </g>
  </g>
</svg>
