<?xml version="1.0" encoding="utf-8"?>
<!-- Generator: Adobe Illustrator 24.1.3, SVG Export Plug-In . SVG Version: 6.00 Build 0)  -->
<svg version="1.1" xmlns="http://www.w3.org/2000/svg" xmlns:xlink="http://www.w3.org/1999/xlink" x="0px" y="0px"
	 viewBox="0 0 128 128" style="enable-background:new 0 0 128 128;" xml:space="preserve">
<style type="text/css">
	.st0{fill:url(#SVGID_1_);}
	.st1{fill:url(#SVGID_2_);}
	.st2{fill:url(#SVGID_3_);}
	.st3{fill:#04121E;}
	.st4{fill:#FFFFFF;}
	.st5{fill:url(#SVGID_4_);}
	.st6{fill:url(#SVGID_5_);}
	.st7{fill:url(#SVGID_6_);}
	.st8{fill:#F7EA08;}
	.st9{fill:#84EDF7;}
	.st10{fill:url(#SVGID_7_);}
	.st11{fill:url(#SVGID_8_);}
	.st12{fill:#106DDF;}
	.st13{fill:url(#SVGID_9_);}
	.st14{fill:url(#SVGID_10_);}
	.st15{fill:url(#SVGID_11_);}
	.st16{fill:url(#SVGID_12_);}
	.st17{fill:url(#SVGID_13_);}
	.st18{fill:url(#SVGID_14_);}
	.st19{fill:url(#SVGID_15_);}
	.st20{fill:url(#SVGID_16_);}
	.st21{fill:url(#SVGID_17_);}
	.st22{fill:url(#SVGID_18_);}
	.st23{fill:url(#SVGID_19_);}
	.st24{fill:url(#SVGID_20_);}
	.st25{fill:none;stroke:#106DDF;stroke-width:30;stroke-miterlimit:10;}
	.st26{fill:none;stroke:#106DDF;stroke-width:20;stroke-miterlimit:10;}
	.st27{fill:none;stroke:#A1519A;stroke-miterlimit:10;}
	.st28{fill:#C9E0FE;}
	.st29{fill:url(#SVGID_21_);}
	.st30{fill:url(#SVGID_22_);}
	.st31{fill:url(#SVGID_23_);}
</style>
<g id="Back">
</g>
<g id="Cloud">
</g>
<g id="edilcoud">
	<g>
		<g>
			<path class="st4" d="M6.38,116.23c-1.19,0-2.24-0.26-3.15-0.78c-0.92-0.52-1.63-1.24-2.15-2.16c-0.52-0.92-0.78-1.98-0.78-3.16
				c0-1.2,0.25-2.26,0.74-3.18c0.49-0.92,1.17-1.64,2.03-2.16c0.86-0.53,1.86-0.79,2.99-0.79c1.11,0,2.08,0.25,2.91,0.76
				c0.83,0.51,1.47,1.21,1.92,2.1c0.45,0.89,0.68,1.91,0.68,3.05c0,0.23-0.07,0.42-0.22,0.56c-0.15,0.14-0.34,0.21-0.57,0.21H1.44
				v-1.41h9.51l-0.94,0.68c0.01-0.85-0.14-1.61-0.46-2.29c-0.32-0.67-0.78-1.2-1.37-1.58c-0.59-0.38-1.3-0.57-2.12-0.57
				c-0.83,0-1.57,0.2-2.2,0.59c-0.63,0.4-1.12,0.94-1.46,1.64c-0.34,0.7-0.52,1.49-0.52,2.38c0,0.89,0.19,1.68,0.58,2.37
				c0.39,0.69,0.92,1.23,1.59,1.63c0.67,0.4,1.45,0.59,2.33,0.59c0.53,0,1.06-0.09,1.59-0.27c0.53-0.18,0.96-0.41,1.29-0.69
				c0.16-0.13,0.34-0.2,0.55-0.21c0.2-0.01,0.38,0.05,0.53,0.16c0.19,0.18,0.29,0.37,0.3,0.57c0.01,0.21-0.08,0.38-0.25,0.53
				c-0.48,0.41-1.1,0.75-1.85,1.02C7.79,116.09,7.07,116.23,6.38,116.23z"/>
		</g>
		<g>
			<path class="st4" d="M19.45,116.23c-1.16,0-2.2-0.27-3.12-0.8c-0.92-0.53-1.65-1.26-2.19-2.19c-0.54-0.92-0.8-1.97-0.8-3.14
				c0-1.16,0.26-2.2,0.78-3.12c0.52-0.92,1.23-1.65,2.12-2.19c0.89-0.53,1.9-0.8,3.03-0.8c0.98,0,1.87,0.21,2.66,0.63
				c0.79,0.42,1.43,0.97,1.91,1.66v-6.46c0-0.26,0.08-0.47,0.24-0.63c0.16-0.15,0.37-0.23,0.62-0.23c0.25,0,0.45,0.08,0.62,0.23
				c0.16,0.15,0.24,0.36,0.24,0.63v10.37c-0.03,1.14-0.31,2.17-0.85,3.09s-1.26,1.64-2.18,2.16S20.6,116.23,19.45,116.23z
				 M19.45,114.69c0.85,0,1.61-0.2,2.27-0.6c0.67-0.4,1.19-0.95,1.58-1.64c0.39-0.69,0.58-1.47,0.58-2.35
				c0-0.86-0.19-1.64-0.58-2.34c-0.39-0.7-0.92-1.24-1.58-1.64c-0.67-0.4-1.42-0.59-2.27-0.59c-0.83,0-1.59,0.2-2.26,0.59
				c-0.67,0.4-1.21,0.94-1.6,1.64c-0.4,0.7-0.59,1.48-0.59,2.34c0,0.88,0.2,1.66,0.59,2.35c0.4,0.69,0.93,1.23,1.6,1.64
				C17.86,114.49,18.62,114.69,19.45,114.69z"/>
		</g>
		<g>
			<path class="st4" d="M30.7,101.81c-0.32,0-0.6-0.12-0.83-0.35c-0.23-0.23-0.35-0.52-0.35-0.86c0-0.37,0.12-0.66,0.36-0.87
				c0.24-0.21,0.52-0.32,0.85-0.32c0.31,0,0.58,0.11,0.82,0.32c0.24,0.21,0.36,0.5,0.36,0.87c0,0.34-0.12,0.62-0.35,0.86
				C31.33,101.69,31.04,101.81,30.7,101.81z M30.73,116.12c-0.26,0-0.47-0.08-0.63-0.23c-0.15-0.15-0.23-0.36-0.23-0.63v-10.31
				c0-0.26,0.08-0.47,0.23-0.63c0.15-0.15,0.36-0.23,0.63-0.23c0.25,0,0.45,0.08,0.6,0.23c0.15,0.15,0.23,0.36,0.23,0.63v10.31
				c0,0.26-0.08,0.47-0.23,0.63C31.18,116.04,30.97,116.12,30.73,116.12z"/>
		</g>
		<g>
			<path class="st4" d="M38.46,116.12c-0.59,0-1.11-0.16-1.57-0.48c-0.46-0.32-0.82-0.77-1.08-1.34c-0.26-0.57-0.38-1.23-0.38-1.98
				V99.79c0-0.25,0.08-0.45,0.23-0.6c0.15-0.15,0.36-0.23,0.6-0.23c0.25,0,0.45,0.08,0.6,0.23c0.15,0.15,0.23,0.36,0.23,0.6v12.52
				c0,0.63,0.13,1.14,0.38,1.54c0.26,0.4,0.58,0.59,0.98,0.59h0.55c0.22,0,0.4,0.08,0.53,0.23c0.13,0.15,0.2,0.36,0.2,0.6
				s-0.09,0.45-0.27,0.6c-0.18,0.15-0.42,0.23-0.71,0.23H38.46z"/>
		</g>
		<g>
			<path class="st4" d="M46.77,116.23c-1.16,0-2.19-0.27-3.09-0.8c-0.9-0.53-1.61-1.26-2.13-2.19c-0.52-0.92-0.78-1.96-0.78-3.12
				c0-1.17,0.25-2.22,0.75-3.14c0.5-0.92,1.18-1.65,2.04-2.19c0.86-0.53,1.86-0.8,2.99-0.8c0.89,0,1.72,0.18,2.47,0.53
				c0.75,0.35,1.42,0.88,1.99,1.58c0.16,0.18,0.22,0.36,0.18,0.56c-0.04,0.2-0.17,0.37-0.37,0.52c-0.16,0.12-0.34,0.16-0.54,0.12
				c-0.2-0.04-0.37-0.14-0.52-0.32c-0.85-0.97-1.92-1.45-3.21-1.45c-0.82,0-1.54,0.2-2.16,0.59c-0.62,0.4-1.11,0.94-1.45,1.63
				c-0.34,0.69-0.52,1.48-0.52,2.37c0,0.88,0.18,1.66,0.55,2.35c0.37,0.69,0.88,1.23,1.54,1.63c0.66,0.4,1.41,0.59,2.26,0.59
				c0.57,0,1.09-0.08,1.57-0.23c0.48-0.15,0.9-0.39,1.26-0.71c0.18-0.15,0.36-0.23,0.55-0.24c0.19-0.01,0.37,0.04,0.53,0.18
				c0.18,0.16,0.27,0.34,0.3,0.55c0.02,0.21-0.05,0.38-0.21,0.53C49.7,115.74,48.36,116.23,46.77,116.23z"/>
		</g>
		<g>
			<path class="st4" d="M57.09,116.12c-0.59,0-1.11-0.16-1.57-0.48c-0.46-0.32-0.82-0.77-1.08-1.34c-0.26-0.57-0.38-1.23-0.38-1.98
				V99.79c0-0.25,0.08-0.45,0.23-0.6c0.15-0.15,0.36-0.23,0.6-0.23c0.25,0,0.45,0.08,0.6,0.23c0.15,0.15,0.23,0.36,0.23,0.6v12.52
				c0,0.63,0.13,1.14,0.38,1.54c0.26,0.4,0.58,0.59,0.98,0.59h0.55c0.22,0,0.4,0.08,0.53,0.23c0.13,0.15,0.2,0.36,0.2,0.6
				s-0.09,0.45-0.27,0.6c-0.18,0.15-0.42,0.23-0.71,0.23H57.09z"/>
		</g>
		<g>
			<path class="st4" d="M65.51,116.23c-1.17,0-2.22-0.26-3.14-0.79c-0.92-0.53-1.65-1.25-2.18-2.18c-0.53-0.92-0.79-1.97-0.79-3.14
				c0-1.19,0.26-2.24,0.79-3.16c0.53-0.92,1.25-1.65,2.18-2.18c0.92-0.53,1.97-0.79,3.14-0.79c1.17,0,2.22,0.26,3.13,0.79
				c0.92,0.53,1.64,1.25,2.16,2.18c0.53,0.92,0.8,1.98,0.81,3.16c0,1.17-0.27,2.22-0.8,3.14c-0.53,0.92-1.26,1.65-2.18,2.18
				C67.73,115.96,66.68,116.23,65.51,116.23z M65.51,114.69c0.85,0,1.61-0.2,2.29-0.59c0.67-0.4,1.2-0.94,1.58-1.63
				c0.38-0.69,0.57-1.47,0.57-2.35s-0.19-1.67-0.57-2.36c-0.38-0.7-0.91-1.24-1.58-1.64c-0.67-0.4-1.44-0.59-2.29-0.59
				s-1.61,0.2-2.28,0.59c-0.67,0.4-1.21,0.94-1.59,1.64c-0.39,0.7-0.58,1.48-0.58,2.36s0.19,1.66,0.58,2.35
				c0.39,0.69,0.92,1.23,1.59,1.63C63.9,114.49,64.66,114.69,65.51,114.69z"/>
		</g>
		<g>
			<path class="st4" d="M80.14,116.25c-1.04,0-1.97-0.22-2.79-0.65c-0.82-0.43-1.47-1.07-1.94-1.9c-0.48-0.83-0.71-1.85-0.71-3.05
				v-5.71c0-0.23,0.08-0.43,0.24-0.59c0.16-0.16,0.36-0.24,0.59-0.24c0.25,0,0.45,0.08,0.62,0.24c0.16,0.16,0.24,0.36,0.24,0.59
				v5.71c0,0.91,0.17,1.66,0.52,2.24s0.81,1.03,1.41,1.32c0.59,0.29,1.26,0.44,2.01,0.44c0.72,0,1.37-0.14,1.94-0.42
				c0.58-0.28,1.04-0.66,1.37-1.14c0.34-0.48,0.51-1.03,0.51-1.65h1.21c-0.04,0.92-0.3,1.75-0.76,2.47
				c-0.46,0.72-1.08,1.3-1.86,1.71C81.96,116.04,81.1,116.25,80.14,116.25z M84.98,116.12c-0.25,0-0.45-0.08-0.6-0.23
				c-0.15-0.15-0.23-0.36-0.23-0.63v-10.33c0-0.25,0.08-0.45,0.23-0.6c0.15-0.15,0.35-0.23,0.6-0.23c0.25,0,0.45,0.08,0.62,0.23
				c0.16,0.15,0.24,0.36,0.24,0.6v10.33c0,0.26-0.08,0.47-0.24,0.63C85.43,116.04,85.23,116.12,84.98,116.12z"/>
		</g>
		<g>
			<path class="st4" d="M95.26,116.23c-1.16,0-2.2-0.27-3.12-0.8c-0.92-0.53-1.65-1.26-2.19-2.19c-0.54-0.92-0.8-1.97-0.8-3.14
				c0-1.16,0.26-2.2,0.78-3.12c0.52-0.92,1.23-1.65,2.12-2.19c0.89-0.53,1.9-0.8,3.03-0.8c0.98,0,1.87,0.21,2.66,0.63
				c0.79,0.42,1.43,0.97,1.91,1.66v-6.46c0-0.26,0.08-0.47,0.24-0.63c0.16-0.15,0.37-0.23,0.62-0.23c0.25,0,0.45,0.08,0.62,0.23
				c0.16,0.15,0.24,0.36,0.24,0.63v10.37c-0.03,1.14-0.31,2.17-0.85,3.09s-1.26,1.64-2.18,2.16S96.4,116.23,95.26,116.23z
				 M95.26,114.69c0.85,0,1.61-0.2,2.27-0.6c0.67-0.4,1.19-0.95,1.58-1.64c0.39-0.69,0.58-1.47,0.58-2.35
				c0-0.86-0.19-1.64-0.58-2.34c-0.39-0.7-0.92-1.24-1.58-1.64c-0.67-0.4-1.42-0.59-2.27-0.59c-0.83,0-1.59,0.2-2.26,0.59
				c-0.67,0.4-1.21,0.94-1.6,1.64c-0.4,0.7-0.59,1.48-0.59,2.34c0,0.88,0.2,1.66,0.59,2.35c0.4,0.69,0.93,1.23,1.6,1.64
				C93.67,114.49,94.43,114.69,95.26,114.69z"/>
		</g>
		<g>
			<path class="st8" d="M105.72,116.47c-0.35,0-0.65-0.12-0.9-0.37c-0.25-0.25-0.37-0.55-0.37-0.9c0-0.37,0.13-0.67,0.38-0.92
				c0.26-0.25,0.55-0.37,0.89-0.37c0.35,0,0.65,0.13,0.9,0.38c0.25,0.26,0.37,0.56,0.37,0.91c0,0.34-0.12,0.63-0.36,0.89
				C106.39,116.34,106.09,116.47,105.72,116.47z"/>
		</g>
		<g>
			<path class="st4" d="M111.26,101.81c-0.32,0-0.6-0.12-0.83-0.35c-0.23-0.23-0.35-0.52-0.35-0.86c0-0.37,0.12-0.66,0.36-0.87
				c0.24-0.21,0.52-0.32,0.85-0.32c0.31,0,0.58,0.11,0.82,0.32c0.24,0.21,0.36,0.5,0.36,0.87c0,0.34-0.12,0.62-0.35,0.86
				C111.88,101.69,111.59,101.81,111.26,101.81z M111.28,116.12c-0.26,0-0.47-0.08-0.63-0.23c-0.15-0.15-0.23-0.36-0.23-0.63v-10.31
				c0-0.26,0.08-0.47,0.23-0.63c0.15-0.15,0.36-0.23,0.63-0.23c0.25,0,0.45,0.08,0.6,0.23c0.15,0.15,0.23,0.36,0.23,0.63v10.31
				c0,0.26-0.08,0.47-0.23,0.63C111.73,116.04,111.53,116.12,111.28,116.12z"/>
		</g>
		<g>
			<path class="st4" d="M121.89,116.23c-1.17,0-2.22-0.26-3.14-0.79s-1.65-1.25-2.18-2.18c-0.53-0.92-0.79-1.97-0.79-3.14
				c0-1.19,0.26-2.24,0.79-3.16c0.53-0.92,1.25-1.65,2.18-2.18s1.97-0.79,3.14-0.79s2.22,0.26,3.13,0.79
				c0.92,0.53,1.64,1.25,2.16,2.18c0.53,0.92,0.8,1.98,0.81,3.16c0,1.17-0.27,2.22-0.8,3.14c-0.53,0.92-1.26,1.65-2.18,2.18
				C124.11,115.96,123.06,116.23,121.89,116.23z M121.89,114.69c0.85,0,1.61-0.2,2.29-0.59c0.67-0.4,1.2-0.94,1.58-1.63
				c0.38-0.69,0.57-1.47,0.57-2.35s-0.19-1.67-0.57-2.36c-0.38-0.7-0.91-1.24-1.58-1.64c-0.67-0.4-1.44-0.59-2.29-0.59
				s-1.61,0.2-2.28,0.59c-0.67,0.4-1.21,0.94-1.59,1.64c-0.39,0.7-0.58,1.48-0.58,2.36s0.19,1.66,0.58,2.35
				c0.39,0.69,0.92,1.23,1.59,1.63C120.28,114.49,121.04,114.69,121.89,114.69z"/>
		</g>
	</g>
</g>
<g id="destra">
</g>
<g id="sinistra">
</g>
<g id="centrodestra">
</g>
<g id="centrosinistra">
</g>
<g id="nuovadavanti">
	<g>
		<path class="st12" d="M33.81,91.07c-11.45,0-22.03-5.73-28.31-15.31C1.9,70.26,0,63.86,0,57.26c0-6.37,1.78-12.58,5.15-17.95
			c0.75-1.2,1.59-2.37,2.49-3.47c4.23-5.16,9.92-8.96,16.24-10.91C27.94,10.49,41.16,0.31,56.43,0.31
			c11.36,0,21.91,5.77,28.12,15.04c2.42-1,5.02-1.52,7.72-1.52c11.18,0,20.28,9.1,20.28,20.28c0,1.36-0.13,2.69-0.39,3.99
			c9.38,4.63,15.59,14.33,15.59,25.05c0,12.23-7.83,22.93-19.49,26.61c-2.49,0.79-5.09,1.22-7.72,1.29l-0.12,0L33.81,91.07z
			 M105.35,80.56l1.46,4.6L105.35,80.56c7.62-2.41,12.74-9.41,12.74-17.41c0-8.13-5.46-15.35-13.27-17.57L99.24,44l2.57-5.2
			c0.72-1.47,1.09-3.04,1.09-4.69c0-5.86-4.77-10.63-10.63-10.63c-2.4,0-4.66,0.78-6.55,2.26l-4.8,3.76l-2.56-5.53
			C74.42,15.47,65.81,9.96,56.43,9.96c-11.67,0-21.66,8.32-23.76,19.78l-0.58,3.2l-3.19,0.66c-5.38,1.11-10.28,4.08-13.79,8.36
			l-3.73-3.06l3.73,3.06c-0.64,0.79-1.24,1.62-1.78,2.48c-2.41,3.83-3.68,8.26-3.68,12.82c0,4.71,1.36,9.28,3.93,13.2l-4.04,2.64
			l4.04-2.64c4.49,6.85,12.05,10.95,20.23,10.95l66.56-0.02C102.07,81.35,103.75,81.07,105.35,80.56z"/>
	</g>
	<g>
		<g>
			<path class="st12" d="M54.33,25.98c-2.69,0-5.27,0.46-7.67,1.31v0.34v43.21v0.34v19.15h8.05V72.47v-0.32V26.31v-0.32
				C54.58,25.99,54.45,25.98,54.33,25.98z"/>
		</g>
		<g>
			<path class="st12" d="M35.59,51.13v26.66v12.53h8.05v-5.46V44.05C40.43,45.75,37.68,48.19,35.59,51.13z"/>
		</g>
		<g>
			<path class="st12" d="M58.1,25.98c2.69,0,5.27,0.46,7.67,1.31v0.34v43.21v0.34v19.15h-8.05V72.47v-0.32V26.31v-0.32
				C57.85,25.99,57.98,25.98,58.1,25.98z"/>
		</g>
		<g>
			<path class="st12" d="M76.84,51.13v26.66v12.53h-8.05v-5.46V44.05C72,45.75,74.75,48.19,76.84,51.13z"/>
		</g>
	</g>
	<path class="st8" d="M105.71,116.47c-0.35,0-0.65-0.12-0.9-0.37c-0.25-0.25-0.37-0.55-0.37-0.9c0-0.37,0.13-0.67,0.39-0.92
		c0.26-0.25,0.55-0.37,0.89-0.37c0.35,0,0.65,0.13,0.9,0.39c0.25,0.26,0.37,0.56,0.37,0.91c0,0.34-0.12,0.63-0.36,0.89
		C106.38,116.34,106.07,116.47,105.71,116.47z"/>
</g>
</svg>
