<?xml version="1.0" encoding="utf-8"?>
<!-- Generator: Adobe Illustrator 22.0.0, SVG Export Plug-In . SVG Version: 6.00 Build 0)  -->
<svg version="1.1" id="Livello_1" xmlns="http://www.w3.org/2000/svg" xmlns:xlink="http://www.w3.org/1999/xlink" x="0px" y="0px"
	 viewBox="0 0 128 27.7" style="enable-background:new 0 0 128 27.7;" xml:space="preserve">
<style type="text/css">
	.st0{fill:url(#SVGID_1_);}
	.st1{fill:url(#SVGID_2_);}
	.st2{fill:url(#SVGID_3_);}
	.st3{fill:url(#SVGID_4_);}
	.st4{fill:url(#SVGID_5_);}
	.st5{fill:url(#SVGID_6_);}
	.st6{fill:url(#SVGID_7_);}
	.st7{clip-path:url(#SVGID_9_);fill:url(#SVGID_10_);}
	.st8{fill:#06D7F9;}
	.st9{display:none;}
</style>
<g id="Capa_2">
	<g>
		<g>
			<g>
				<defs>
					<path id="SVGID_8_" d="M28.2-1C14.8-1,4-11.8,4-25.3c0-13.4,10.9-24.3,24.3-24.3c7.2,0,13.7,3.1,18.1,8.1
						c0.7,0.8,1.3,1.6,1.9,2.4c0.2,0.4,0.5,0.8,0.7,1.1c6.4,9.5,16.6,16.3,28.4,18.1c2,0.3,4.1,0.5,6.2,0.5c1.5,0,3-0.1,4.5-0.2
						c13.7-1.5,25.4-9.6,31.8-21c3.3,4.2,5.3,9.4,5.3,15.1c0,13.4-10.8,24.3-24.3,24.3L64.6-1.1L28.2-1z"/>
				</defs>
				<clipPath id="SVGID_1_">
					<use xlink:href="#SVGID_8_"  style="overflow:visible;"/>
				</clipPath>
				
					<linearGradient id="SVGID_2_" gradientUnits="userSpaceOnUse" x1="8.99" y1="-63.48" x2="130.23" y2="-63.48" gradientTransform="matrix(1 0 0 -1 0 -70.58)">
					<stop  offset="0.1338" style="stop-color:#3DD6F9"/>
					<stop  offset="0.9499" style="stop-color:#1570D4"/>
				</linearGradient>
				<path style="clip-path:url(#SVGID_1_);fill:url(#SVGID_2_);" d="M33.2,17.2C19.9,17.2,9,6.3,9-7.1c0-13.4,10.9-24.3,24.3-24.3
					c7.2,0,13.7,3.1,18.1,8.1c0.7,0.8,1.3,1.6,1.9,2.4c0.2,0.4,0.5,0.8,0.7,1.1c6.4,9.5,16.6,16.3,28.4,18.1c2,0.3,4.1,0.5,6.2,0.5
					c1.5,0,3-0.1,4.5-0.2c13.7-1.5,25.4-9.6,31.8-21c3.3,4.2,5.3,9.4,5.3,15.1C130.2,6.1,119.4,17,106,17l-36.4,0.1L33.2,17.2z"/>
			</g>
		</g>
	</g>
	<g>
		<path class="st8" d="M11.3,27c-1.4,0-2.7-0.3-3.8-0.9c-1.1-0.6-2-1.5-2.6-2.6C4.3,22.4,4,21.1,4,19.7c0-1.4,0.3-2.7,0.9-3.8
			s1.4-2,2.4-2.6s2.2-0.9,3.6-0.9c1.3,0,2.5,0.3,3.5,0.9s1.8,1.4,2.3,2.5c0.5,1.1,0.8,2.3,0.8,3.7c0,0.3-0.1,0.5-0.3,0.7
			c-0.2,0.2-0.4,0.3-0.7,0.3H5.4v-1.7h11.4l-1.1,0.8c0-1-0.2-1.9-0.6-2.7c-0.4-0.8-0.9-1.4-1.6-1.9s-1.6-0.7-2.5-0.7
			c-1,0-1.9,0.2-2.6,0.7c-0.8,0.5-1.3,1.1-1.8,2s-0.6,1.8-0.6,2.9s0.2,2,0.7,2.8c0.5,0.8,1.1,1.5,1.9,1.9c0.8,0.5,1.7,0.7,2.8,0.7
			c0.6,0,1.3-0.1,1.9-0.3s1.1-0.5,1.5-0.8c0.2-0.2,0.4-0.2,0.7-0.3s0.5,0.1,0.6,0.2c0.2,0.2,0.4,0.4,0.4,0.7c0,0.3-0.1,0.5-0.3,0.6
			c-0.6,0.5-1.3,0.9-2.2,1.2C13,26.8,12.1,27,11.3,27z"/>
		<path class="st8" d="M27,27c-1.4,0-2.6-0.3-3.7-1s-2-1.5-2.6-2.6s-1-2.4-1-3.8c0-1.4,0.3-2.6,0.9-3.7c0.6-1.1,1.5-2,2.5-2.6
			s2.3-1,3.6-1c1.2,0,2.2,0.3,3.2,0.8s1.7,1.2,2.3,2V7.3c0-0.3,0.1-0.6,0.3-0.8c0.2-0.2,0.4-0.3,0.7-0.3c0.3,0,0.5,0.1,0.7,0.3
			c0.2,0.2,0.3,0.4,0.3,0.8v12.4c0,1.4-0.4,2.6-1,3.7s-1.5,2-2.6,2.6C29.6,26.7,28.3,27,27,27z M27,25.2c1,0,1.9-0.2,2.7-0.7
			s1.4-1.1,1.9-2c0.5-0.8,0.7-1.8,0.7-2.8c0-1-0.2-2-0.7-2.8c-0.5-0.8-1.1-1.5-1.9-2S28,14.2,27,14.2c-1,0-1.9,0.2-2.7,0.7
			c-0.8,0.5-1.5,1.1-1.9,2s-0.7,1.8-0.7,2.8c0,1.1,0.2,2,0.7,2.8s1.1,1.5,1.9,2C25.1,24.9,26,25.2,27,25.2z"/>
		<path class="st8" d="M40.5,9.7c-0.4,0-0.7-0.1-1-0.4S39,8.7,39,8.3c0-0.4,0.1-0.8,0.4-1s0.6-0.4,1-0.4c0.4,0,0.7,0.1,1,0.4
			s0.4,0.6,0.4,1c0,0.4-0.1,0.8-0.4,1C41.2,9.6,40.9,9.7,40.5,9.7z"/>
		<path class="st8" d="M40.5,26.9c-0.3,0-0.6-0.1-0.8-0.3s-0.3-0.4-0.3-0.8V13.5c0-0.3,0.1-0.6,0.3-0.8s0.4-0.3,0.8-0.3
			c0.3,0,0.5,0.1,0.7,0.3s0.3,0.4,0.3,0.8v12.3c0,0.3-0.1,0.6-0.3,0.8S40.8,26.9,40.5,26.9z"/>
		<path class="st8" d="M49.8,26.9c-0.7,0-1.3-0.2-1.9-0.6s-1-0.9-1.3-1.6c-0.3-0.7-0.5-1.5-0.5-2.4v-15c0-0.3,0.1-0.5,0.3-0.7
			c0.2-0.2,0.4-0.3,0.7-0.3s0.5,0.1,0.7,0.3s0.3,0.4,0.3,0.7v15c0,0.8,0.2,1.4,0.5,1.8c0.3,0.5,0.7,0.7,1.2,0.7h0.7
			c0.3,0,0.5,0.1,0.6,0.3s0.2,0.4,0.2,0.7c0,0.3-0.1,0.5-0.3,0.7s-0.5,0.3-0.9,0.3L49.8,26.9L49.8,26.9z"/>
		<path class="st8" d="M59.7,27c-1.4,0-2.6-0.3-3.7-1s-1.9-1.5-2.6-2.6c-0.6-1.1-0.9-2.3-0.9-3.7c0-1.4,0.3-2.7,0.9-3.8
			c0.6-1.1,1.4-2,2.5-2.6s2.2-1,3.6-1c1.1,0,2.1,0.2,3,0.6c0.9,0.4,1.7,1.1,2.4,1.9c0.2,0.2,0.3,0.4,0.2,0.7s-0.2,0.4-0.4,0.6
			c-0.2,0.1-0.4,0.2-0.7,0.1c-0.2,0-0.4-0.2-0.6-0.4c-1-1.2-2.3-1.7-3.8-1.7c-1,0-1.8,0.2-2.6,0.7c-0.8,0.5-1.3,1.1-1.7,1.9
			c-0.4,0.8-0.6,1.8-0.6,2.8c0,1.1,0.2,2,0.7,2.8s1,1.5,1.8,1.9c0.8,0.5,1.7,0.7,2.7,0.7c0.7,0,1.3-0.1,1.9-0.3s1.1-0.5,1.5-0.9
			c0.2-0.2,0.4-0.3,0.7-0.3c0.2,0,0.4,0.1,0.6,0.2c0.2,0.2,0.3,0.4,0.4,0.7s-0.1,0.5-0.3,0.6C63.2,26.4,61.6,27,59.7,27z"/>
		<path class="st8" d="M72.1,26.9c-0.7,0-1.3-0.2-1.9-0.6c-0.6-0.4-1-0.9-1.3-1.6c-0.3-0.7-0.5-1.5-0.5-2.4v-15
			c0-0.3,0.1-0.5,0.3-0.7s0.4-0.3,0.7-0.3c0.3,0,0.5,0.1,0.7,0.3s0.3,0.4,0.3,0.7v15c0,0.8,0.2,1.4,0.5,1.8c0.3,0.5,0.7,0.7,1.2,0.7
			h0.7c0.3,0,0.5,0.1,0.6,0.3s0.2,0.4,0.2,0.7c0,0.3-0.1,0.5-0.3,0.7s-0.5,0.3-0.9,0.3L72.1,26.9L72.1,26.9z"/>
		<path class="st8" d="M82.2,27c-1.4,0-2.7-0.3-3.8-0.9c-1.1-0.6-2-1.5-2.6-2.6s-0.9-2.4-0.9-3.8c0-1.4,0.3-2.7,0.9-3.8
			c0.6-1.1,1.5-2,2.6-2.6s2.4-0.9,3.8-0.9c1.4,0,2.7,0.3,3.8,0.9c1.1,0.6,2,1.5,2.6,2.6s1,2.4,1,3.8c0,1.4-0.3,2.7-1,3.8
			c-0.6,1.1-1.5,2-2.6,2.6C84.8,26.7,83.6,27,82.2,27z M82.2,25.2c1,0,1.9-0.2,2.7-0.7s1.4-1.1,1.9-1.9c0.5-0.8,0.7-1.8,0.7-2.8
			s-0.2-2-0.7-2.8c-0.5-0.8-1.1-1.5-1.9-2c-0.8-0.5-1.7-0.7-2.7-0.7s-1.9,0.2-2.7,0.7s-1.4,1.1-1.9,2s-0.7,1.8-0.7,2.8
			s0.2,2,0.7,2.8c0.5,0.8,1.1,1.5,1.9,1.9C80.3,24.9,81.2,25.2,82.2,25.2z"/>
		<path class="st8" d="M99.7,27c-1.3,0-2.4-0.3-3.3-0.8c-1-0.5-1.8-1.3-2.3-2.3s-0.9-2.2-0.9-3.7v-6.8c0-0.3,0.1-0.5,0.3-0.7
			s0.4-0.3,0.7-0.3c0.3,0,0.5,0.1,0.7,0.3c0.2,0.2,0.3,0.4,0.3,0.7v6.8c0,1.1,0.2,2,0.6,2.7c0.4,0.7,1,1.2,1.7,1.6
			c0.7,0.3,1.5,0.5,2.4,0.5c0.9,0,1.6-0.2,2.3-0.5s1.2-0.8,1.7-1.4c0.4-0.6,0.6-1.2,0.6-2h1.4c-0.1,1.1-0.4,2.1-0.9,3
			s-1.3,1.6-2.2,2.1C101.9,26.8,100.9,27,99.7,27z M105.5,26.9c-0.3,0-0.5-0.1-0.7-0.3s-0.3-0.4-0.3-0.8V13.5c0-0.3,0.1-0.5,0.3-0.7
			s0.4-0.3,0.7-0.3s0.5,0.1,0.7,0.3c0.2,0.2,0.3,0.4,0.3,0.7v12.4c0,0.3-0.1,0.6-0.3,0.8C106.1,26.8,105.8,26.9,105.5,26.9z"/>
		<path class="st8" d="M117.8,27c-1.4,0-2.6-0.3-3.7-1s-2-1.5-2.6-2.6s-1-2.4-1-3.8c0-1.4,0.3-2.6,0.9-3.7c0.6-1.1,1.5-2,2.5-2.6
			s2.3-1,3.6-1c1.2,0,2.2,0.3,3.2,0.8c0.9,0.5,1.7,1.2,2.3,2V7.3c0-0.3,0.1-0.6,0.3-0.8s0.4-0.3,0.7-0.3c0.3,0,0.5,0.1,0.7,0.3
			c0.2,0.2,0.3,0.4,0.3,0.8v12.4c0,1.4-0.4,2.6-1,3.7s-1.5,2-2.6,2.6C120.4,26.7,119.2,27,117.8,27z M117.8,25.2
			c1,0,1.9-0.2,2.7-0.7s1.4-1.1,1.9-2c0.5-0.8,0.7-1.8,0.7-2.8c0-1-0.2-2-0.7-2.8c-0.5-0.8-1.1-1.5-1.9-2s-1.7-0.7-2.7-0.7
			c-1,0-1.9,0.2-2.7,0.7c-0.8,0.5-1.4,1.1-1.9,2s-0.7,1.8-0.7,2.8c0,1.1,0.2,2,0.7,2.8s1.1,1.5,1.9,2
			C115.9,24.9,116.8,25.2,117.8,25.2z"/>
	</g>
</g>
</svg>
